<svg width="581" height="40" viewBox="0 0 581 40" fill="none" xmlns="http://www.w3.org/2000/svg">
<path d="M0 8C0 3.58172 3.58172 0 8 0H573C577.418 0 581 3.58172 581 8V32C581 36.4183 577.418 40 573 40H8.00001C3.58174 40 0 36.4183 0 32V8Z" fill="white"/>
<path d="M24.6279 22.2549H23.842L23.5634 21.9849C24.5384 20.8449 25.1254 19.3649 25.1254 17.7549C25.1254 14.1649 22.2303 11.2549 18.6587 11.2549C15.0872 11.2549 12.1921 14.1649 12.1921 17.7549C12.1921 21.3449 15.0872 24.2549 18.6587 24.2549C20.2605 24.2549 21.7329 23.6649 22.867 22.6849L23.1356 22.9649V23.7549L28.1099 28.7449L29.5923 27.2549L24.6279 22.2549ZM18.6587 22.2549C16.1815 22.2549 14.1819 20.2449 14.1819 17.7549C14.1819 15.2649 16.1815 13.2549 18.6587 13.2549C21.136 13.2549 23.1356 15.2649 23.1356 17.7549C23.1356 20.2449 21.136 22.2549 18.6587 22.2549Z" fill="black" fill-opacity="0.56"/>
<path d="M47.0374 22.4365C47.0374 22.2314 47.0055 22.0492 46.9417 21.8896C46.8824 21.7301 46.7753 21.5843 46.6204 21.4521C46.4654 21.32 46.2467 21.1924 45.9641 21.0693C45.6861 20.9417 45.3306 20.8118 44.8977 20.6797C44.4237 20.5339 43.9862 20.3721 43.5852 20.1943C43.1887 20.012 42.8424 19.8024 42.5461 19.5654C42.2499 19.3239 42.0198 19.0482 41.8557 18.7383C41.6917 18.4238 41.6096 18.0615 41.6096 17.6514C41.6096 17.2458 41.6939 16.8766 41.8625 16.5439C42.0357 16.2113 42.2795 15.9242 42.594 15.6826C42.913 15.4365 43.289 15.2474 43.7219 15.1152C44.1549 14.9785 44.6334 14.9102 45.1575 14.9102C45.8958 14.9102 46.5315 15.0469 47.0647 15.3203C47.6025 15.5938 48.0149 15.9606 48.302 16.4209C48.5937 16.8812 48.7395 17.3893 48.7395 17.9453H47.0374C47.0374 17.6172 46.9667 17.3278 46.8254 17.0771C46.6887 16.8219 46.4791 16.6214 46.1965 16.4756C45.9185 16.3298 45.5653 16.2568 45.137 16.2568C44.7314 16.2568 44.3941 16.3184 44.1252 16.4414C43.8564 16.5645 43.6558 16.7308 43.5237 16.9404C43.3915 17.1501 43.3254 17.387 43.3254 17.6514C43.3254 17.8382 43.3687 18.0091 43.4553 18.1641C43.5419 18.3145 43.6741 18.4557 43.8518 18.5879C44.0295 18.7155 44.2528 18.8363 44.5217 18.9502C44.7906 19.0641 45.1073 19.1735 45.4719 19.2783C46.0234 19.4424 46.5042 19.6247 46.9143 19.8252C47.3245 20.0212 47.6663 20.2445 47.9397 20.4951C48.2131 20.7458 48.4182 21.0306 48.5549 21.3496C48.6917 21.6641 48.76 22.0218 48.76 22.4229C48.76 22.8421 48.6757 23.2204 48.5071 23.5576C48.3385 23.8903 48.0969 24.1751 47.7825 24.4121C47.4726 24.6445 47.0989 24.8245 46.6614 24.9521C46.2284 25.0752 45.7454 25.1367 45.2122 25.1367C44.7336 25.1367 44.262 25.0729 43.7971 24.9453C43.3368 24.8177 42.9176 24.624 42.5393 24.3643C42.1611 24.0999 41.8603 23.7718 41.637 23.3799C41.4137 22.9834 41.302 22.5208 41.302 21.9922H43.0178C43.0178 22.3158 43.0725 22.5915 43.1819 22.8193C43.2958 23.0472 43.453 23.234 43.6536 23.3799C43.8541 23.5212 44.0865 23.626 44.3508 23.6943C44.6197 23.7627 44.9068 23.7969 45.2122 23.7969C45.6132 23.7969 45.9482 23.7399 46.217 23.626C46.4905 23.512 46.6956 23.3525 46.8323 23.1475C46.969 22.9424 47.0374 22.7054 47.0374 22.4365ZM53.5443 25.1367C52.9974 25.1367 52.5029 25.0479 52.0609 24.8701C51.6234 24.6878 51.2497 24.4349 50.9398 24.1113C50.6344 23.7878 50.3997 23.4072 50.2357 22.9697C50.0716 22.5322 49.9896 22.0605 49.9896 21.5547V21.2812C49.9896 20.7025 50.0739 20.1784 50.2425 19.709C50.4111 19.2396 50.6458 18.8385 50.9466 18.5059C51.2474 18.1686 51.6029 17.9111 52.013 17.7334C52.4232 17.5557 52.8675 17.4668 53.346 17.4668C53.8747 17.4668 54.3372 17.5557 54.7337 17.7334C55.1302 17.9111 55.4583 18.1618 55.7181 18.4854C55.9824 18.8044 56.1784 19.1849 56.306 19.627C56.4381 20.069 56.5042 20.5566 56.5042 21.0898V21.7939H50.7894V20.6113H54.8773V20.4814C54.8682 20.1852 54.8089 19.9072 54.6995 19.6475C54.5947 19.3877 54.4329 19.1781 54.2142 19.0186C53.9954 18.859 53.7038 18.7793 53.3392 18.7793C53.0658 18.7793 52.8219 18.8385 52.6077 18.957C52.3981 19.071 52.2227 19.2373 52.0814 19.4561C51.9401 19.6748 51.8307 19.9391 51.7533 20.249C51.6803 20.5544 51.6439 20.8984 51.6439 21.2812V21.5547C51.6439 21.8783 51.6872 22.179 51.7738 22.457C51.8649 22.7305 51.9971 22.9697 52.1702 23.1748C52.3434 23.3799 52.5531 23.5417 52.7992 23.6602C53.0452 23.7741 53.3255 23.8311 53.64 23.8311C54.0365 23.8311 54.3896 23.7513 54.6995 23.5918C55.0094 23.4323 55.2783 23.2067 55.5062 22.915L56.3743 23.7559C56.2148 23.9883 56.0075 24.2116 55.7523 24.4258C55.4971 24.6354 55.1849 24.8063 54.8158 24.9385C54.4512 25.0706 54.0273 25.1367 53.5443 25.1367ZM62.1293 23.5166V19.9893C62.1293 19.7249 62.0815 19.4971 61.9858 19.3057C61.89 19.1143 61.7442 18.9661 61.5483 18.8613C61.3568 18.7565 61.1153 18.7041 60.8236 18.7041C60.5548 18.7041 60.3223 18.7497 60.1264 18.8408C59.9304 18.932 59.7777 19.055 59.6684 19.21C59.559 19.3649 59.5043 19.5404 59.5043 19.7363H57.8637C57.8637 19.4447 57.9343 19.1621 58.0756 18.8887C58.2169 18.6152 58.422 18.3714 58.6908 18.1572C58.9597 17.943 59.281 17.7744 59.6547 17.6514C60.0284 17.5283 60.4477 17.4668 60.9125 17.4668C61.4685 17.4668 61.9607 17.5602 62.3891 17.7471C62.822 17.9339 63.1615 18.2165 63.4076 18.5947C63.6583 18.9684 63.7836 19.4378 63.7836 20.0029V23.291C63.7836 23.6283 63.8064 23.9313 63.852 24.2002C63.9021 24.4645 63.9727 24.6947 64.0639 24.8906V25H62.3754C62.2979 24.8223 62.2364 24.5967 62.1908 24.3232C62.1498 24.0452 62.1293 23.7764 62.1293 23.5166ZM62.3686 20.502L62.3822 21.5205H61.1996C60.8943 21.5205 60.6254 21.5501 60.393 21.6094C60.1606 21.6641 59.9669 21.7461 59.8119 21.8555C59.657 21.9648 59.5408 22.097 59.4633 22.252C59.3858 22.4069 59.3471 22.5824 59.3471 22.7783C59.3471 22.9743 59.3927 23.1543 59.4838 23.3184C59.5749 23.4779 59.7071 23.6032 59.8803 23.6943C60.058 23.7855 60.2722 23.8311 60.5229 23.8311C60.8601 23.8311 61.154 23.7627 61.4047 23.626C61.6599 23.4847 61.8604 23.3138 62.0063 23.1133C62.1521 22.9082 62.2296 22.7145 62.2387 22.5322L62.7719 23.2637C62.7172 23.4505 62.6238 23.651 62.4916 23.8652C62.3595 24.0794 62.1863 24.2845 61.9721 24.4805C61.7624 24.6719 61.5095 24.8291 61.2133 24.9521C60.9216 25.0752 60.5844 25.1367 60.2016 25.1367C59.7185 25.1367 59.2878 25.041 58.9096 24.8496C58.5313 24.6536 58.2351 24.3916 58.0209 24.0635C57.8067 23.7308 57.6996 23.3548 57.6996 22.9355C57.6996 22.5436 57.7725 22.1973 57.9184 21.8965C58.0688 21.5911 58.2875 21.3359 58.5746 21.1309C58.8663 20.9258 59.2218 20.7708 59.641 20.666C60.0603 20.5566 60.5388 20.502 61.0766 20.502H62.3686ZM67.3306 19.0117V25H65.6831V17.6035H67.2554L67.3306 19.0117ZM69.5933 17.5557L69.5796 19.0869C69.4793 19.0687 69.3699 19.055 69.2515 19.0459C69.1375 19.0368 69.0236 19.0322 68.9097 19.0322C68.6271 19.0322 68.3787 19.0732 68.1645 19.1553C67.9503 19.2327 67.7703 19.3467 67.6245 19.4971C67.4832 19.6429 67.3739 19.8206 67.2964 20.0303C67.2189 20.2399 67.1733 20.4746 67.1597 20.7344L66.7837 20.7617C66.7837 20.2969 66.8293 19.8662 66.9204 19.4697C67.0115 19.0732 67.1483 18.7246 67.3306 18.4238C67.5174 18.123 67.7498 17.8883 68.0278 17.7197C68.3104 17.5511 68.6362 17.4668 69.0054 17.4668C69.1056 17.4668 69.2127 17.4759 69.3267 17.4941C69.4451 17.5124 69.534 17.5329 69.5933 17.5557ZM73.6802 23.8242C73.9491 23.8242 74.1907 23.7718 74.4049 23.667C74.6236 23.5576 74.7991 23.4072 74.9312 23.2158C75.0679 23.0244 75.1431 22.8034 75.1568 22.5527H76.7086C76.6995 23.0312 76.5582 23.4665 76.2847 23.8584C76.0113 24.2503 75.649 24.5625 75.1978 24.7949C74.7467 25.0228 74.2476 25.1367 73.7008 25.1367C73.1356 25.1367 72.6435 25.041 72.2242 24.8496C71.8049 24.6536 71.4563 24.3848 71.1783 24.043C70.9003 23.7012 70.6907 23.307 70.5494 22.8604C70.4127 22.4137 70.3443 21.9352 70.3443 21.4248V21.1855C70.3443 20.6751 70.4127 20.1966 70.5494 19.75C70.6907 19.2988 70.9003 18.9023 71.1783 18.5605C71.4563 18.2188 71.8049 17.9521 72.2242 17.7607C72.6435 17.5648 73.1334 17.4668 73.6939 17.4668C74.2864 17.4668 74.8059 17.5853 75.2525 17.8223C75.6991 18.0547 76.05 18.3805 76.3052 18.7998C76.565 19.2145 76.6995 19.6976 76.7086 20.249H75.1568C75.1431 19.9756 75.0748 19.7295 74.9517 19.5107C74.8332 19.2874 74.6646 19.1097 74.4459 18.9775C74.2317 18.8454 73.9742 18.7793 73.6734 18.7793C73.3407 18.7793 73.065 18.8477 72.8463 18.9844C72.6275 19.1165 72.4566 19.2988 72.3336 19.5312C72.2105 19.7591 72.1217 20.0166 72.067 20.3037C72.0168 20.5863 71.9918 20.8802 71.9918 21.1855V21.4248C71.9918 21.7301 72.0168 22.0264 72.067 22.3135C72.1171 22.6006 72.2037 22.8581 72.3267 23.0859C72.4543 23.3092 72.6275 23.4893 72.8463 23.626C73.065 23.7581 73.343 23.8242 73.6802 23.8242ZM79.7702 14.5V25H78.1295V14.5H79.7702ZM79.4831 21.0283L78.9499 21.0215C78.9544 20.5111 79.025 20.0394 79.1618 19.6064C79.303 19.1735 79.499 18.7975 79.7497 18.4785C80.0049 18.1549 80.3102 17.9066 80.6657 17.7334C81.0211 17.5557 81.4153 17.4668 81.8483 17.4668C82.2129 17.4668 82.541 17.5169 82.8327 17.6172C83.1289 17.7174 83.3841 17.8792 83.5983 18.1025C83.8125 18.3213 83.9743 18.6084 84.0836 18.9639C84.1976 19.3148 84.2545 19.7432 84.2545 20.249V25H82.6002V20.2354C82.6002 19.8799 82.5478 19.5973 82.443 19.3877C82.3428 19.1781 82.1946 19.0277 81.9987 18.9365C81.8027 18.8408 81.5635 18.793 81.2809 18.793C80.9847 18.793 80.7226 18.8522 80.4948 18.9707C80.2715 19.0892 80.0846 19.251 79.9342 19.4561C79.7838 19.6611 79.6699 19.8981 79.5924 20.167C79.5195 20.4359 79.4831 20.723 79.4831 21.0283ZM86.1609 24.1797C86.1609 23.9245 86.2475 23.7103 86.4206 23.5371C86.5938 23.3594 86.8285 23.2705 87.1247 23.2705C87.4255 23.2705 87.6602 23.3594 87.8288 23.5371C88.002 23.7103 88.0886 23.9245 88.0886 24.1797C88.0886 24.4349 88.002 24.6491 87.8288 24.8223C87.6602 24.9954 87.4255 25.082 87.1247 25.082C86.8285 25.082 86.5938 24.9954 86.4206 24.8223C86.2475 24.6491 86.1609 24.4349 86.1609 24.1797ZM90.2274 24.1797C90.2274 23.9245 90.3139 23.7103 90.4871 23.5371C90.6603 23.3594 90.895 23.2705 91.1912 23.2705C91.492 23.2705 91.7267 23.3594 91.8953 23.5371C92.0685 23.7103 92.1551 23.9245 92.1551 24.1797C92.1551 24.4349 92.0685 24.6491 91.8953 24.8223C91.7267 24.9954 91.492 25.082 91.1912 25.082C90.895 25.082 90.6603 24.9954 90.4871 24.8223C90.3139 24.6491 90.2274 24.4349 90.2274 24.1797ZM94.2938 24.1797C94.2938 23.9245 94.3804 23.7103 94.5536 23.5371C94.7268 23.3594 94.9615 23.2705 95.2577 23.2705C95.5585 23.2705 95.7932 23.3594 95.9618 23.5371C96.135 23.7103 96.2216 23.9245 96.2216 24.1797C96.2216 24.4349 96.135 24.6491 95.9618 24.8223C95.7932 24.9954 95.5585 25.082 95.2577 25.082C94.9615 25.082 94.7268 24.9954 94.5536 24.8223C94.3804 24.6491 94.2938 24.4349 94.2938 24.1797Z" fill="#5F5F5F"/>
</svg>
