<svg width="224" height="60" viewBox="0 0 224 60" fill="none" xmlns="http://www.w3.org/2000/svg">
<path d="M0.5 8C0.5 6.067 2.067 4.5 4 4.5H220C221.933 4.5 223.5 6.067 223.5 8V46C223.5 47.933 221.933 49.5 220 49.5H4C2.067 49.5 0.5 47.933 0.5 46V8Z" stroke="black" stroke-opacity="0.23"/>
<path d="M20.0859 30.4062V32.1406C20.0859 33.0729 20.0026 33.8594 19.8359 34.5C19.6693 35.1406 19.4297 35.6562 19.1172 36.0469C18.8047 36.4375 18.4271 36.7214 17.9844 36.8984C17.5469 37.0703 17.0521 37.1562 16.5 37.1562C16.0625 37.1562 15.6589 37.1016 15.2891 36.9922C14.9193 36.8828 14.5859 36.7083 14.2891 36.4688C13.9974 36.224 13.7474 35.9062 13.5391 35.5156C13.3307 35.125 13.1719 34.651 13.0625 34.0938C12.9531 33.5365 12.8984 32.8854 12.8984 32.1406V30.4062C12.8984 29.474 12.9818 28.6927 13.1484 28.0625C13.3203 27.4323 13.5625 26.9271 13.875 26.5469C14.1875 26.1615 14.5625 25.8854 15 25.7188C15.4427 25.5521 15.9375 25.4688 16.4844 25.4688C16.9271 25.4688 17.3333 25.5234 17.7031 25.6328C18.0781 25.737 18.4115 25.9062 18.7031 26.1406C18.9948 26.3698 19.2422 26.6771 19.4453 27.0625C19.6536 27.4427 19.8125 27.9089 19.9219 28.4609C20.0312 29.013 20.0859 29.6615 20.0859 30.4062ZM18.6328 32.375V30.1641C18.6328 29.6536 18.6016 29.2057 18.5391 28.8203C18.4818 28.4297 18.3958 28.0964 18.2812 27.8203C18.1667 27.5443 18.0208 27.3203 17.8438 27.1484C17.6719 26.9766 17.4714 26.8516 17.2422 26.7734C17.0182 26.6901 16.7656 26.6484 16.4844 26.6484C16.1406 26.6484 15.8359 26.7135 15.5703 26.8438C15.3047 26.9688 15.0807 27.1693 14.8984 27.4453C14.7214 27.7214 14.5859 28.0833 14.4922 28.5312C14.3984 28.9792 14.3516 29.5234 14.3516 30.1641V32.375C14.3516 32.8854 14.3802 33.3359 14.4375 33.7266C14.5 34.1172 14.5911 34.4557 14.7109 34.7422C14.8307 35.0234 14.9766 35.2552 15.1484 35.4375C15.3203 35.6198 15.5182 35.7552 15.7422 35.8438C15.9714 35.9271 16.224 35.9688 16.5 35.9688C16.8542 35.9688 17.1641 35.901 17.4297 35.7656C17.6953 35.6302 17.9167 35.4193 18.0938 35.1328C18.276 34.8411 18.4115 34.4688 18.5 34.0156C18.5885 33.5573 18.6328 33.0104 18.6328 32.375ZM29.7828 33.1719V34.3594H21.5641V33.5078L26.6578 25.625H27.8375L26.5719 27.9062L23.2047 33.1719H29.7828ZM28.1969 25.625V37H26.7516V25.625H28.1969ZM36.4328 25.625L31.6906 37.9766H30.4484L35.1984 25.625H36.4328ZM42.7547 25.5625V37H41.3094V27.3672L38.3953 28.4297V27.125L42.5281 25.5625H42.7547ZM54.5062 25.625V26.4375L49.7953 37H48.2719L52.975 26.8125H46.8187V25.625H54.5062ZM61.4922 25.625L56.75 37.9766H55.5078L60.2578 25.625H61.4922ZM70.5172 35.8125V37H63.0719V35.9609L66.7984 31.8125C67.2568 31.3021 67.6109 30.8698 67.8609 30.5156C68.1161 30.1562 68.2932 29.8359 68.3922 29.5547C68.4964 29.2682 68.5484 28.9766 68.5484 28.6797C68.5484 28.3047 68.4703 27.9661 68.3141 27.6641C68.163 27.3568 67.9391 27.112 67.6422 26.9297C67.3453 26.7474 66.9859 26.6562 66.5641 26.6562C66.0589 26.6562 65.637 26.7552 65.2984 26.9531C64.9651 27.1458 64.7151 27.4167 64.5484 27.7656C64.3818 28.1146 64.2984 28.5156 64.2984 28.9688H62.8531C62.8531 28.3281 62.9938 27.7422 63.275 27.2109C63.5563 26.6797 63.9729 26.2578 64.525 25.9453C65.0771 25.6276 65.7568 25.4688 66.5641 25.4688C67.2828 25.4688 67.8974 25.5964 68.4078 25.8516C68.9182 26.1016 69.3089 26.4557 69.5797 26.9141C69.8557 27.3672 69.9938 27.8984 69.9938 28.5078C69.9938 28.8411 69.9365 29.1797 69.8219 29.5234C69.7125 29.862 69.5589 30.2005 69.3609 30.5391C69.1682 30.8776 68.9417 31.2109 68.6813 31.5391C68.426 31.8672 68.1526 32.1901 67.8609 32.5078L64.8141 35.8125H70.5172ZM79.3547 30.4062V32.1406C79.3547 33.0729 79.2714 33.8594 79.1047 34.5C78.938 35.1406 78.6984 35.6562 78.3859 36.0469C78.0734 36.4375 77.6958 36.7214 77.2531 36.8984C76.8156 37.0703 76.3208 37.1562 75.7687 37.1562C75.3312 37.1562 74.9276 37.1016 74.5578 36.9922C74.188 36.8828 73.8547 36.7083 73.5578 36.4688C73.2661 36.224 73.0161 35.9062 72.8078 35.5156C72.5995 35.125 72.4406 34.651 72.3312 34.0938C72.2219 33.5365 72.1672 32.8854 72.1672 32.1406V30.4062C72.1672 29.474 72.2505 28.6927 72.4172 28.0625C72.5891 27.4323 72.8312 26.9271 73.1437 26.5469C73.4562 26.1615 73.8312 25.8854 74.2687 25.7188C74.7115 25.5521 75.2062 25.4688 75.7531 25.4688C76.1958 25.4688 76.6021 25.5234 76.9719 25.6328C77.3469 25.737 77.6802 25.9062 77.9719 26.1406C78.2635 26.3698 78.5109 26.6771 78.7141 27.0625C78.9224 27.4427 79.0812 27.9089 79.1906 28.4609C79.3 29.013 79.3547 29.6615 79.3547 30.4062ZM77.9016 32.375V30.1641C77.9016 29.6536 77.8703 29.2057 77.8078 28.8203C77.7505 28.4297 77.6646 28.0964 77.55 27.8203C77.4354 27.5443 77.2896 27.3203 77.1125 27.1484C76.9406 26.9766 76.7401 26.8516 76.5109 26.7734C76.287 26.6901 76.0344 26.6484 75.7531 26.6484C75.4094 26.6484 75.1047 26.7135 74.8391 26.8438C74.5734 26.9688 74.3495 27.1693 74.1672 27.4453C73.9901 27.7214 73.8547 28.0833 73.7609 28.5312C73.6672 28.9792 73.6203 29.5234 73.6203 30.1641V32.375C73.6203 32.8854 73.649 33.3359 73.7062 33.7266C73.7687 34.1172 73.8599 34.4557 73.9797 34.7422C74.0995 35.0234 74.2453 35.2552 74.4172 35.4375C74.5891 35.6198 74.787 35.7552 75.0109 35.8438C75.2401 35.9271 75.4927 35.9688 75.7687 35.9688C76.1229 35.9688 76.4328 35.901 76.6984 35.7656C76.9641 35.6302 77.1854 35.4193 77.3625 35.1328C77.5448 34.8411 77.6802 34.4688 77.7687 34.0156C77.8573 33.5573 77.9016 33.0104 77.9016 32.375ZM88.8172 35.8125V37H81.3719V35.9609L85.0984 31.8125C85.5568 31.3021 85.9109 30.8698 86.1609 30.5156C86.4161 30.1562 86.5932 29.8359 86.6922 29.5547C86.7964 29.2682 86.8484 28.9766 86.8484 28.6797C86.8484 28.3047 86.7703 27.9661 86.6141 27.6641C86.463 27.3568 86.2391 27.112 85.9422 26.9297C85.6453 26.7474 85.2859 26.6562 84.8641 26.6562C84.3589 26.6562 83.937 26.7552 83.5984 26.9531C83.2651 27.1458 83.0151 27.4167 82.8484 27.7656C82.6818 28.1146 82.5984 28.5156 82.5984 28.9688H81.1531C81.1531 28.3281 81.2937 27.7422 81.575 27.2109C81.8562 26.6797 82.2729 26.2578 82.825 25.9453C83.3771 25.6276 84.0568 25.4688 84.8641 25.4688C85.5828 25.4688 86.1974 25.5964 86.7078 25.8516C87.2182 26.1016 87.6089 26.4557 87.8797 26.9141C88.1557 27.3672 88.2937 27.8984 88.2937 28.5078C88.2937 28.8411 88.2365 29.1797 88.1219 29.5234C88.0125 29.862 87.8589 30.2005 87.6609 30.5391C87.4682 30.8776 87.2417 31.2109 86.9812 31.5391C86.726 31.8672 86.4526 32.1901 86.1609 32.5078L83.1141 35.8125H88.8172ZM97.9672 35.8125V37H90.5219V35.9609L94.2484 31.8125C94.7068 31.3021 95.0609 30.8698 95.3109 30.5156C95.5661 30.1562 95.7432 29.8359 95.8422 29.5547C95.9464 29.2682 95.9984 28.9766 95.9984 28.6797C95.9984 28.3047 95.9203 27.9661 95.7641 27.6641C95.613 27.3568 95.3891 27.112 95.0922 26.9297C94.7953 26.7474 94.4359 26.6562 94.0141 26.6562C93.5089 26.6562 93.087 26.7552 92.7484 26.9531C92.4151 27.1458 92.1651 27.4167 91.9984 27.7656C91.8318 28.1146 91.7484 28.5156 91.7484 28.9688H90.3031C90.3031 28.3281 90.4437 27.7422 90.725 27.2109C91.0062 26.6797 91.4229 26.2578 91.975 25.9453C92.5271 25.6276 93.2068 25.4688 94.0141 25.4688C94.7328 25.4688 95.3474 25.5964 95.8578 25.8516C96.3682 26.1016 96.7589 26.4557 97.0297 26.9141C97.3057 27.3672 97.4437 27.8984 97.4437 28.5078C97.4437 28.8411 97.3865 29.1797 97.2719 29.5234C97.1625 29.862 97.0089 30.2005 96.8109 30.5391C96.6182 30.8776 96.3917 31.2109 96.1312 31.5391C95.876 31.8672 95.6026 32.1901 95.3109 32.5078L92.2641 35.8125H97.9672ZM108.533 25.5625V37H107.088V27.3672L104.173 28.4297V27.125L108.306 25.5625H108.533ZM115.042 30.6016H116.073C116.579 30.6016 116.995 30.5182 117.323 30.3516C117.657 30.1797 117.904 29.9479 118.066 29.6562C118.232 29.3594 118.316 29.026 118.316 28.6562C118.316 28.2188 118.243 27.8516 118.097 27.5547C117.951 27.2578 117.732 27.0339 117.441 26.8828C117.149 26.7318 116.779 26.6562 116.331 26.6562C115.925 26.6562 115.566 26.737 115.253 26.8984C114.946 27.0547 114.704 27.2786 114.527 27.5703C114.355 27.862 114.269 28.2057 114.269 28.6016H112.823C112.823 28.0234 112.969 27.4974 113.261 27.0234C113.553 26.5495 113.961 26.1719 114.488 25.8906C115.019 25.6094 115.633 25.4688 116.331 25.4688C117.019 25.4688 117.62 25.5911 118.136 25.8359C118.652 26.0755 119.053 26.4349 119.339 26.9141C119.626 27.388 119.769 27.9792 119.769 28.6875C119.769 28.974 119.701 29.2812 119.566 29.6094C119.435 29.9323 119.23 30.2344 118.948 30.5156C118.672 30.7969 118.313 31.0286 117.87 31.2109C117.428 31.388 116.896 31.4766 116.277 31.4766H115.042V30.6016ZM115.042 31.7891V30.9219H116.277C117.001 30.9219 117.599 31.0078 118.073 31.1797C118.547 31.3516 118.92 31.5807 119.191 31.8672C119.467 32.1536 119.659 32.4688 119.769 32.8125C119.883 33.151 119.941 33.4896 119.941 33.8281C119.941 34.3594 119.849 34.8307 119.667 35.2422C119.49 35.6536 119.238 36.0026 118.909 36.2891C118.586 36.5755 118.206 36.7917 117.769 36.9375C117.331 37.0833 116.855 37.1562 116.339 37.1562C115.844 37.1562 115.378 37.0859 114.941 36.9453C114.508 36.8047 114.126 36.6016 113.792 36.3359C113.459 36.0651 113.198 35.7344 113.011 35.3438C112.823 34.9479 112.73 34.4974 112.73 33.9922H114.175C114.175 34.388 114.261 34.7344 114.433 35.0312C114.61 35.3281 114.86 35.5599 115.183 35.7266C115.511 35.888 115.896 35.9688 116.339 35.9688C116.782 35.9688 117.162 35.8932 117.48 35.7422C117.803 35.5859 118.05 35.3516 118.222 35.0391C118.399 34.7266 118.488 34.3333 118.488 33.8594C118.488 33.3854 118.389 32.9974 118.191 32.6953C117.993 32.388 117.711 32.1615 117.347 32.0156C116.988 31.8646 116.563 31.7891 116.073 31.7891H115.042ZM122.177 36.2344C122.177 35.9896 122.252 35.7839 122.403 35.6172C122.559 35.4453 122.783 35.3594 123.075 35.3594C123.367 35.3594 123.588 35.4453 123.739 35.6172C123.895 35.7839 123.973 35.9896 123.973 36.2344C123.973 36.474 123.895 36.6771 123.739 36.8438C123.588 37.0104 123.367 37.0938 123.075 37.0938C122.783 37.0938 122.559 37.0104 122.403 36.8438C122.252 36.6771 122.177 36.474 122.177 36.2344ZM122.184 29.3359C122.184 29.0911 122.26 28.8854 122.411 28.7188C122.567 28.5469 122.791 28.4609 123.083 28.4609C123.374 28.4609 123.596 28.5469 123.747 28.7188C123.903 28.8854 123.981 29.0911 123.981 29.3359C123.981 29.5755 123.903 29.7786 123.747 29.9453C123.596 30.112 123.374 30.1953 123.083 30.1953C122.791 30.1953 122.567 30.112 122.411 29.9453C122.26 29.7786 122.184 29.5755 122.184 29.3359ZM133.248 30.4062V32.1406C133.248 33.0729 133.165 33.8594 132.998 34.5C132.832 35.1406 132.592 35.6562 132.28 36.0469C131.967 36.4375 131.59 36.7214 131.147 36.8984C130.709 37.0703 130.215 37.1562 129.662 37.1562C129.225 37.1562 128.821 37.1016 128.452 36.9922C128.082 36.8828 127.748 36.7083 127.452 36.4688C127.16 36.224 126.91 35.9062 126.702 35.5156C126.493 35.125 126.334 34.651 126.225 34.0938C126.116 33.5365 126.061 32.8854 126.061 32.1406V30.4062C126.061 29.474 126.144 28.6927 126.311 28.0625C126.483 27.4323 126.725 26.9271 127.037 26.5469C127.35 26.1615 127.725 25.8854 128.162 25.7188C128.605 25.5521 129.1 25.4688 129.647 25.4688C130.09 25.4688 130.496 25.5234 130.866 25.6328C131.241 25.737 131.574 25.9062 131.866 26.1406C132.157 26.3698 132.405 26.6771 132.608 27.0625C132.816 27.4427 132.975 27.9089 133.084 28.4609C133.194 29.013 133.248 29.6615 133.248 30.4062ZM131.795 32.375V30.1641C131.795 29.6536 131.764 29.2057 131.702 28.8203C131.644 28.4297 131.558 28.0964 131.444 27.8203C131.329 27.5443 131.183 27.3203 131.006 27.1484C130.834 26.9766 130.634 26.8516 130.405 26.7734C130.181 26.6901 129.928 26.6484 129.647 26.6484C129.303 26.6484 128.998 26.7135 128.733 26.8438C128.467 26.9688 128.243 27.1693 128.061 27.4453C127.884 27.7214 127.748 28.0833 127.655 28.5312C127.561 28.9792 127.514 29.5234 127.514 30.1641V32.375C127.514 32.8854 127.543 33.3359 127.6 33.7266C127.662 34.1172 127.754 34.4557 127.873 34.7422C127.993 35.0234 128.139 35.2552 128.311 35.4375C128.483 35.6198 128.681 35.7552 128.905 35.8438C129.134 35.9271 129.386 35.9688 129.662 35.9688C130.017 35.9688 130.327 35.901 130.592 35.7656C130.858 35.6302 131.079 35.4193 131.256 35.1328C131.439 34.8411 131.574 34.4688 131.662 34.0156C131.751 33.5573 131.795 33.0104 131.795 32.375ZM142.398 30.4062V32.1406C142.398 33.0729 142.315 33.8594 142.148 34.5C141.982 35.1406 141.742 35.6562 141.43 36.0469C141.117 36.4375 140.74 36.7214 140.297 36.8984C139.859 37.0703 139.365 37.1562 138.812 37.1562C138.375 37.1562 137.971 37.1016 137.602 36.9922C137.232 36.8828 136.898 36.7083 136.602 36.4688C136.31 36.224 136.06 35.9062 135.852 35.5156C135.643 35.125 135.484 34.651 135.375 34.0938C135.266 33.5365 135.211 32.8854 135.211 32.1406V30.4062C135.211 29.474 135.294 28.6927 135.461 28.0625C135.633 27.4323 135.875 26.9271 136.188 26.5469C136.5 26.1615 136.875 25.8854 137.312 25.7188C137.755 25.5521 138.25 25.4688 138.797 25.4688C139.24 25.4688 139.646 25.5234 140.016 25.6328C140.391 25.737 140.724 25.9062 141.016 26.1406C141.307 26.3698 141.555 26.6771 141.758 27.0625C141.966 27.4427 142.125 27.9089 142.234 28.4609C142.344 29.013 142.398 29.6615 142.398 30.4062ZM140.945 32.375V30.1641C140.945 29.6536 140.914 29.2057 140.852 28.8203C140.794 28.4297 140.708 28.0964 140.594 27.8203C140.479 27.5443 140.333 27.3203 140.156 27.1484C139.984 26.9766 139.784 26.8516 139.555 26.7734C139.331 26.6901 139.078 26.6484 138.797 26.6484C138.453 26.6484 138.148 26.7135 137.883 26.8438C137.617 26.9688 137.393 27.1693 137.211 27.4453C137.034 27.7214 136.898 28.0833 136.805 28.5312C136.711 28.9792 136.664 29.5234 136.664 30.1641V32.375C136.664 32.8854 136.693 33.3359 136.75 33.7266C136.812 34.1172 136.904 34.4557 137.023 34.7422C137.143 35.0234 137.289 35.2552 137.461 35.4375C137.633 35.6198 137.831 35.7552 138.055 35.8438C138.284 35.9271 138.536 35.9688 138.812 35.9688C139.167 35.9688 139.477 35.901 139.742 35.7656C140.008 35.6302 140.229 35.4193 140.406 35.1328C140.589 34.8411 140.724 34.4688 140.812 34.0156C140.901 33.5573 140.945 33.0104 140.945 32.375ZM153.113 26.6328L149.347 37H147.808L152.144 25.625H153.136L153.113 26.6328ZM156.269 37L152.495 26.6328L152.472 25.625H153.464L157.816 37H156.269ZM156.073 32.7891V34.0234H149.683V32.7891H156.073ZM159.966 25.625H161.427L165.153 34.8984L168.872 25.625H170.341L165.716 37H164.575L159.966 25.625ZM159.489 25.625H160.778L160.989 32.5625V37H159.489V25.625ZM169.52 25.625H170.809V37H169.309V32.5625L169.52 25.625Z" fill="black" fill-opacity="0.87"/>
<path d="M205 32H200V37H205V32ZM204 21V23H196V21H194V23H193C191.89 23 191.01 23.9 191.01 25L191 39C191 40.1 191.89 41 193 41H207C208.1 41 209 40.1 209 39V25C209 23.9 208.1 23 207 23H206V21H204ZM207 39H193V28H207V39Z" fill="black" fill-opacity="0.56"/>
<rect width="29" height="2" transform="translate(12 4)" fill="white"/>
<path d="M22.4102 8.08008V9H17.8926V8.08008H22.4102ZM18.1211 0.46875V9H16.9902V0.46875H18.1211ZM21.8125 4.13672V5.05664H17.8926V4.13672H21.8125ZM22.3516 0.46875V1.39453H17.8926V0.46875H22.3516ZM24.8805 4.01367V9H23.7965V2.66016H24.8219L24.8805 4.01367ZM24.6227 5.58984L24.1715 5.57227C24.1754 5.13867 24.2398 4.73828 24.3648 4.37109C24.4898 4 24.6656 3.67773 24.8922 3.4043C25.1188 3.13086 25.3883 2.91992 25.7008 2.77148C26.0172 2.61914 26.3668 2.54297 26.7496 2.54297C27.0621 2.54297 27.3434 2.58594 27.5934 2.67188C27.8434 2.75391 28.0563 2.88672 28.232 3.07031C28.4117 3.25391 28.5484 3.49219 28.6422 3.78516C28.7359 4.07422 28.7828 4.42773 28.7828 4.8457V9H27.693V4.83398C27.693 4.50195 27.6441 4.23633 27.5465 4.03711C27.4488 3.83398 27.3063 3.6875 27.1188 3.59766C26.9313 3.50391 26.7008 3.45703 26.4273 3.45703C26.1578 3.45703 25.9117 3.51367 25.6891 3.62695C25.4703 3.74023 25.2809 3.89648 25.1207 4.0957C24.9645 4.29492 24.8414 4.52344 24.7516 4.78125C24.6656 5.03516 24.6227 5.30469 24.6227 5.58984ZM34.5754 7.76953V0H35.6652V9H34.6691L34.5754 7.76953ZM30.3098 5.90039V5.77734C30.3098 5.29297 30.3684 4.85352 30.4855 4.45898C30.6066 4.06055 30.7766 3.71875 30.9953 3.43359C31.218 3.14844 31.4816 2.92969 31.7863 2.77734C32.0949 2.62109 32.4387 2.54297 32.8176 2.54297C33.216 2.54297 33.5637 2.61328 33.8605 2.75391C34.1613 2.89062 34.4152 3.0918 34.6223 3.35742C34.8332 3.61914 34.9992 3.93555 35.1203 4.30664C35.2414 4.67773 35.3254 5.09766 35.3723 5.56641V6.10547C35.3293 6.57031 35.2453 6.98828 35.1203 7.35938C34.9992 7.73047 34.8332 8.04688 34.6223 8.30859C34.4152 8.57031 34.1613 8.77148 33.8605 8.91211C33.5598 9.04883 33.2082 9.11719 32.8059 9.11719C32.4348 9.11719 32.0949 9.03711 31.7863 8.87695C31.4816 8.7168 31.218 8.49219 30.9953 8.20312C30.7766 7.91406 30.6066 7.57422 30.4855 7.18359C30.3684 6.78906 30.3098 6.36133 30.3098 5.90039ZM31.3996 5.77734V5.90039C31.3996 6.2168 31.4309 6.51367 31.4934 6.79102C31.5598 7.06836 31.6613 7.3125 31.798 7.52344C31.9348 7.73438 32.1086 7.90039 32.3195 8.02148C32.5305 8.13867 32.7824 8.19727 33.0754 8.19727C33.4348 8.19727 33.7297 8.12109 33.9602 7.96875C34.1945 7.81641 34.382 7.61523 34.5227 7.36523C34.6633 7.11523 34.7727 6.84375 34.8508 6.55078V5.13867C34.8039 4.92383 34.7355 4.7168 34.6457 4.51758C34.5598 4.31445 34.4465 4.13477 34.3059 3.97852C34.1691 3.81836 33.9992 3.69141 33.7961 3.59766C33.5969 3.50391 33.3605 3.45703 33.0871 3.45703C32.7902 3.45703 32.5344 3.51953 32.3195 3.64453C32.1086 3.76562 31.9348 3.93359 31.798 4.14844C31.6613 4.35938 31.5598 4.60547 31.4934 4.88672C31.4309 5.16406 31.3996 5.46094 31.3996 5.77734Z" fill="#009688"/>
</svg>
