<svg width="1217" height="48" viewBox="0 0 1217 48" fill="none" xmlns="http://www.w3.org/2000/svg">
<g filter="url(#filter0_dd_245_6048)">
<rect width="1209" height="40" transform="translate(4 3)" fill="white"/>
<path d="M21.7969 16.625H23.2578L26.9844 25.8984L30.7031 16.625H32.1719L27.5469 28H26.4062L21.7969 16.625ZM21.3203 16.625H22.6094L22.8203 23.5625V28H21.3203V16.625ZM31.3516 16.625H32.6406V28H31.1406V23.5625L31.3516 16.625ZM34.8375 23.8672V23.6875C34.8375 23.0781 34.926 22.513 35.1031 21.9922C35.2802 21.4661 35.5354 21.0104 35.8687 20.625C36.2021 20.2344 36.6057 19.9323 37.0797 19.7188C37.5536 19.5 38.0849 19.3906 38.6734 19.3906C39.2672 19.3906 39.801 19.5 40.275 19.7188C40.7542 19.9323 41.1604 20.2344 41.4937 20.625C41.8323 21.0104 42.0901 21.4661 42.2672 21.9922C42.4443 22.513 42.5328 23.0781 42.5328 23.6875V23.8672C42.5328 24.4766 42.4443 25.0417 42.2672 25.5625C42.0901 26.0833 41.8323 26.5391 41.4937 26.9297C41.1604 27.3151 40.7568 27.6172 40.2828 27.8359C39.8141 28.0495 39.2828 28.1562 38.6891 28.1562C38.0953 28.1562 37.5615 28.0495 37.0875 27.8359C36.6135 27.6172 36.2073 27.3151 35.8687 26.9297C35.5354 26.5391 35.2802 26.0833 35.1031 25.5625C34.926 25.0417 34.8375 24.4766 34.8375 23.8672ZM36.2828 23.6875V23.8672C36.2828 24.2891 36.3323 24.6875 36.4312 25.0625C36.5302 25.4323 36.6786 25.7604 36.8766 26.0469C37.0797 26.3333 37.3323 26.5599 37.6344 26.7266C37.9365 26.888 38.288 26.9688 38.6891 26.9688C39.0849 26.9688 39.4312 26.888 39.7281 26.7266C40.0302 26.5599 40.2802 26.3333 40.4781 26.0469C40.676 25.7604 40.8245 25.4323 40.9234 25.0625C41.0276 24.6875 41.0797 24.2891 41.0797 23.8672V23.6875C41.0797 23.2708 41.0276 22.8776 40.9234 22.5078C40.8245 22.1328 40.6734 21.8021 40.4703 21.5156C40.2724 21.224 40.0224 20.9948 39.7203 20.8281C39.4234 20.6615 39.0745 20.5781 38.6734 20.5781C38.2776 20.5781 37.9286 20.6615 37.6266 20.8281C37.3297 20.9948 37.0797 21.224 36.8766 21.5156C36.6786 21.8021 36.5302 22.1328 36.4312 22.5078C36.3323 22.8776 36.2828 23.2708 36.2828 23.6875ZM49.8234 26.3594V16H51.2766V28H49.9484L49.8234 26.3594ZM44.1359 23.8672V23.7031C44.1359 23.0573 44.2141 22.4714 44.3703 21.9453C44.5318 21.4141 44.7583 20.9583 45.05 20.5781C45.3469 20.1979 45.6984 19.9062 46.1047 19.7031C46.5161 19.4948 46.9745 19.3906 47.4797 19.3906C48.0109 19.3906 48.4745 19.4844 48.8703 19.6719C49.2714 19.8542 49.6099 20.1224 49.8859 20.4766C50.1672 20.8255 50.3885 21.2474 50.55 21.7422C50.7115 22.237 50.8234 22.7969 50.8859 23.4219V24.1406C50.8286 24.7604 50.7167 25.3177 50.55 25.8125C50.3885 26.3073 50.1672 26.7292 49.8859 27.0781C49.6099 27.4271 49.2714 27.6953 48.8703 27.8828C48.4693 28.0651 48.0005 28.1562 47.4641 28.1562C46.9693 28.1562 46.5161 28.0495 46.1047 27.8359C45.6984 27.6224 45.3469 27.3229 45.05 26.9375C44.7583 26.5521 44.5318 26.099 44.3703 25.5781C44.2141 25.0521 44.1359 24.4818 44.1359 23.8672ZM45.5891 23.7031V23.8672C45.5891 24.2891 45.6307 24.6849 45.7141 25.0547C45.8026 25.4245 45.938 25.75 46.1203 26.0312C46.3026 26.3125 46.5344 26.5339 46.8156 26.6953C47.0969 26.8516 47.4328 26.9297 47.8234 26.9297C48.3026 26.9297 48.6958 26.8281 49.0031 26.625C49.3156 26.4219 49.5656 26.1536 49.7531 25.8203C49.9406 25.487 50.0865 25.125 50.1906 24.7344V22.8516C50.1281 22.5651 50.037 22.2891 49.9172 22.0234C49.8026 21.7526 49.6516 21.513 49.4641 21.3047C49.2818 21.0911 49.0552 20.9219 48.7844 20.7969C48.5187 20.6719 48.2036 20.6094 47.8391 20.6094C47.4432 20.6094 47.1021 20.6927 46.8156 20.8594C46.5344 21.0208 46.3026 21.2448 46.1203 21.5312C45.938 21.8125 45.8026 22.1406 45.7141 22.5156C45.6307 22.8854 45.5891 23.2812 45.5891 23.7031ZM57.1844 28.1562C56.5958 28.1562 56.062 28.0573 55.5828 27.8594C55.1089 27.6562 54.7 27.3724 54.3563 27.0078C54.0177 26.6432 53.7573 26.2109 53.575 25.7109C53.3927 25.2109 53.3016 24.6641 53.3016 24.0703V23.7422C53.3016 23.0547 53.4031 22.4427 53.6063 21.9062C53.8094 21.3646 54.0854 20.9062 54.4344 20.5312C54.7833 20.1562 55.1792 19.8724 55.6219 19.6797C56.0646 19.487 56.5229 19.3906 56.9969 19.3906C57.601 19.3906 58.1219 19.4948 58.5594 19.7031C59.0021 19.9115 59.3641 20.2031 59.6453 20.5781C59.9266 20.9479 60.1349 21.3854 60.2703 21.8906C60.4057 22.3906 60.4734 22.9375 60.4734 23.5312V24.1797H54.1609V23H59.0281V22.8906C59.0073 22.5156 58.9292 22.151 58.7938 21.7969C58.6635 21.4427 58.4552 21.151 58.1688 20.9219C57.8823 20.6927 57.4917 20.5781 56.9969 20.5781C56.6688 20.5781 56.3667 20.6484 56.0906 20.7891C55.8146 20.9245 55.5776 21.1276 55.3797 21.3984C55.1818 21.6693 55.0281 22 54.9188 22.3906C54.8094 22.7812 54.7547 23.2318 54.7547 23.7422V24.0703C54.7547 24.4714 54.8094 24.849 54.9188 25.2031C55.0333 25.5521 55.1974 25.8594 55.4109 26.125C55.6297 26.3906 55.8927 26.599 56.2 26.75C56.5125 26.901 56.8667 26.9766 57.2625 26.9766C57.7729 26.9766 58.2052 26.8724 58.5594 26.6641C58.9135 26.4557 59.2234 26.1771 59.4891 25.8281L60.3641 26.5234C60.1818 26.7995 59.95 27.0625 59.6688 27.3125C59.3875 27.5625 59.0411 27.7656 58.6297 27.9219C58.2234 28.0781 57.7417 28.1562 57.1844 28.1562ZM63.8812 16V28H62.4281V16H63.8812ZM77.6656 16.625V17.4375L72.9547 28H71.4313L76.1344 17.8125H69.9781V16.625H77.6656Z" fill="#009688"/>
<path d="M420.552 26.7734V28H414.865V26.7734H420.552ZM415.161 16.625V28H413.654V16.625H415.161ZM423.78 19.5469V28H422.327V19.5469H423.78ZM422.218 17.3047C422.218 17.0703 422.288 16.8724 422.429 16.7109C422.574 16.5495 422.788 16.4688 423.069 16.4688C423.345 16.4688 423.556 16.5495 423.702 16.7109C423.853 16.8724 423.929 17.0703 423.929 17.3047C423.929 17.5286 423.853 17.7214 423.702 17.8828C423.556 18.0391 423.345 18.1172 423.069 18.1172C422.788 18.1172 422.574 18.0391 422.429 17.8828C422.288 17.7214 422.218 17.5286 422.218 17.3047ZM431.172 25.7578C431.172 25.5495 431.125 25.3568 431.032 25.1797C430.943 24.9974 430.758 24.8333 430.477 24.6875C430.201 24.5365 429.784 24.4062 429.227 24.2969C428.758 24.1979 428.334 24.0807 427.954 23.9453C427.579 23.8099 427.258 23.6458 426.993 23.4531C426.732 23.2604 426.532 23.0339 426.391 22.7734C426.25 22.513 426.18 22.2083 426.18 21.8594C426.18 21.526 426.253 21.2109 426.399 20.9141C426.55 20.6172 426.761 20.3542 427.032 20.125C427.308 19.8958 427.638 19.7161 428.024 19.5859C428.409 19.4557 428.839 19.3906 429.313 19.3906C429.99 19.3906 430.568 19.5104 431.047 19.75C431.526 19.9896 431.894 20.3099 432.149 20.7109C432.404 21.1068 432.532 21.5469 432.532 22.0312H431.086C431.086 21.7969 431.016 21.5703 430.875 21.3516C430.74 21.1276 430.54 20.9427 430.274 20.7969C430.013 20.651 429.693 20.5781 429.313 20.5781C428.912 20.5781 428.586 20.6406 428.336 20.7656C428.092 20.8854 427.912 21.0391 427.797 21.2266C427.688 21.4141 427.633 21.612 427.633 21.8203C427.633 21.9766 427.659 22.1172 427.711 22.2422C427.769 22.362 427.868 22.474 428.008 22.5781C428.149 22.6771 428.347 22.7708 428.602 22.8594C428.857 22.9479 429.183 23.0365 429.579 23.125C430.271 23.2812 430.842 23.4688 431.29 23.6875C431.737 23.9062 432.071 24.1745 432.29 24.4922C432.508 24.8099 432.618 25.1953 432.618 25.6484C432.618 26.0182 432.54 26.3568 432.383 26.6641C432.232 26.9714 432.011 27.237 431.719 27.4609C431.433 27.6797 431.089 27.8516 430.688 27.9766C430.292 28.0964 429.847 28.1562 429.352 28.1562C428.607 28.1562 427.977 28.0234 427.461 27.7578C426.946 27.4922 426.555 27.1484 426.29 26.7266C426.024 26.3047 425.891 25.8594 425.891 25.3906H427.344C427.365 25.7865 427.48 26.1016 427.688 26.3359C427.896 26.5651 428.151 26.7292 428.454 26.8281C428.756 26.9219 429.055 26.9688 429.352 26.9688C429.748 26.9688 430.079 26.9167 430.344 26.8125C430.615 26.7083 430.821 26.5651 430.961 26.3828C431.102 26.2005 431.172 25.9922 431.172 25.7578ZM438.205 19.5469V20.6562H433.635V19.5469H438.205ZM435.182 17.4922H436.627V25.9062C436.627 26.1927 436.671 26.4089 436.76 26.5547C436.848 26.7005 436.963 26.7969 437.104 26.8438C437.244 26.8906 437.395 26.9141 437.557 26.9141C437.676 26.9141 437.801 26.9036 437.932 26.8828C438.067 26.8568 438.169 26.8359 438.236 26.8203L438.244 28C438.13 28.0365 437.979 28.0703 437.791 28.1016C437.609 28.138 437.387 28.1562 437.127 28.1562C436.773 28.1562 436.447 28.0859 436.15 27.9453C435.854 27.8047 435.617 27.5703 435.44 27.2422C435.268 26.9089 435.182 26.4609 435.182 25.8984V17.4922ZM452.794 22.3359V26.5C452.654 26.7083 452.43 26.9427 452.122 27.2031C451.815 27.4583 451.391 27.6823 450.849 27.875C450.312 28.0625 449.62 28.1562 448.771 28.1562C448.078 28.1562 447.44 28.0365 446.857 27.7969C446.279 27.5521 445.776 27.1979 445.349 26.7344C444.927 26.2656 444.599 25.6979 444.365 25.0312C444.135 24.3594 444.021 23.599 444.021 22.75V21.8672C444.021 21.0182 444.12 20.2604 444.318 19.5938C444.521 18.9271 444.818 18.362 445.208 17.8984C445.599 17.4297 446.078 17.0755 446.646 16.8359C447.213 16.5911 447.865 16.4688 448.599 16.4688C449.469 16.4688 450.195 16.6198 450.779 16.9219C451.367 17.2188 451.825 17.6302 452.154 18.1562C452.487 18.6823 452.7 19.2812 452.794 19.9531H451.286C451.219 19.5417 451.083 19.1667 450.88 18.8281C450.682 18.4896 450.398 18.2188 450.029 18.0156C449.659 17.8073 449.182 17.7031 448.599 17.7031C448.073 17.7031 447.617 17.7995 447.232 17.9922C446.846 18.1849 446.529 18.4609 446.279 18.8203C446.029 19.1797 445.841 19.6146 445.716 20.125C445.596 20.6354 445.536 21.2109 445.536 21.8516V22.75C445.536 23.4062 445.612 23.9922 445.763 24.5078C445.919 25.0234 446.141 25.4635 446.427 25.8281C446.713 26.1875 447.055 26.4609 447.45 26.6484C447.851 26.8359 448.294 26.9297 448.779 26.9297C449.315 26.9297 449.75 26.8854 450.083 26.7969C450.417 26.7031 450.677 26.5938 450.865 26.4688C451.052 26.3385 451.195 26.2161 451.294 26.1016V23.5547H448.661V22.3359H452.794ZM456.671 20.875V28H455.225V19.5469H456.632L456.671 20.875ZM459.311 19.5L459.304 20.8438C459.184 20.8177 459.069 20.8021 458.96 20.7969C458.856 20.7865 458.736 20.7812 458.6 20.7812C458.267 20.7812 457.973 20.8333 457.718 20.9375C457.462 21.0417 457.246 21.1875 457.069 21.375C456.892 21.5625 456.751 21.7865 456.647 22.0469C456.548 22.3021 456.483 22.5833 456.452 22.8906L456.046 23.125C456.046 22.6146 456.095 22.1354 456.194 21.6875C456.298 21.2396 456.457 20.8438 456.671 20.5C456.884 20.151 457.155 19.8802 457.483 19.6875C457.817 19.4896 458.212 19.3906 458.671 19.3906C458.775 19.3906 458.895 19.4036 459.03 19.4297C459.166 19.4505 459.259 19.474 459.311 19.5ZM465.469 26.5547V22.2031C465.469 21.8698 465.401 21.5807 465.266 21.3359C465.136 21.0859 464.938 20.8932 464.672 20.7578C464.407 20.6224 464.079 20.5547 463.688 20.5547C463.323 20.5547 463.003 20.6172 462.727 20.7422C462.456 20.8672 462.243 21.0312 462.086 21.2344C461.935 21.4375 461.86 21.6562 461.86 21.8906H460.415C460.415 21.5885 460.493 21.2891 460.649 20.9922C460.805 20.6953 461.029 20.4271 461.321 20.1875C461.618 19.9427 461.972 19.75 462.383 19.6094C462.8 19.4635 463.263 19.3906 463.774 19.3906C464.388 19.3906 464.93 19.4948 465.399 19.7031C465.873 19.9115 466.243 20.2266 466.508 20.6484C466.779 21.0651 466.915 21.5885 466.915 22.2188V26.1562C466.915 26.4375 466.938 26.737 466.985 27.0547C467.037 27.3724 467.112 27.6458 467.211 27.875V28H465.704C465.631 27.8333 465.573 27.612 465.532 27.3359C465.49 27.0547 465.469 26.7943 465.469 26.5547ZM465.719 22.875L465.735 23.8906H464.274C463.862 23.8906 463.495 23.9245 463.172 23.9922C462.849 24.0547 462.579 24.151 462.36 24.2812C462.141 24.4115 461.974 24.5755 461.86 24.7734C461.745 24.9661 461.688 25.1927 461.688 25.4531C461.688 25.7188 461.748 25.9609 461.868 26.1797C461.987 26.3984 462.167 26.5729 462.407 26.7031C462.651 26.8281 462.951 26.8906 463.305 26.8906C463.748 26.8906 464.138 26.7969 464.477 26.6094C464.816 26.4219 465.084 26.1927 465.282 25.9219C465.485 25.651 465.594 25.388 465.61 25.1328L466.227 25.8281C466.191 26.0469 466.092 26.2891 465.93 26.5547C465.769 26.8203 465.553 27.0755 465.282 27.3203C465.016 27.5599 464.698 27.7604 464.329 27.9219C463.964 28.0781 463.553 28.1562 463.094 28.1562C462.521 28.1562 462.019 28.0443 461.586 27.8203C461.159 27.5964 460.826 27.2969 460.586 26.9219C460.352 26.5417 460.235 26.1172 460.235 25.6484C460.235 25.1953 460.323 24.7969 460.5 24.4531C460.678 24.1042 460.933 23.8151 461.266 23.5859C461.599 23.3516 462 23.1745 462.469 23.0547C462.938 22.9349 463.461 22.875 464.04 22.875H465.719ZM470.783 21.1719V31.25H469.33V19.5469H470.658L470.783 21.1719ZM476.479 23.7031V23.8672C476.479 24.4818 476.406 25.0521 476.26 25.5781C476.114 26.099 475.9 26.5521 475.619 26.9375C475.343 27.3229 475.002 27.6224 474.596 27.8359C474.19 28.0495 473.723 28.1562 473.197 28.1562C472.661 28.1562 472.187 28.0677 471.775 27.8906C471.364 27.7135 471.015 27.4557 470.729 27.1172C470.442 26.7786 470.213 26.3724 470.041 25.8984C469.874 25.4245 469.76 24.8906 469.697 24.2969V23.4219C469.76 22.7969 469.877 22.237 470.049 21.7422C470.221 21.2474 470.447 20.8255 470.729 20.4766C471.015 20.1224 471.361 19.8542 471.768 19.6719C472.174 19.4844 472.643 19.3906 473.174 19.3906C473.705 19.3906 474.176 19.4948 474.588 19.7031C474.999 19.9062 475.346 20.1979 475.627 20.5781C475.908 20.9583 476.119 21.4141 476.26 21.9453C476.406 22.4714 476.479 23.0573 476.479 23.7031ZM475.025 23.8672V23.7031C475.025 23.2812 474.981 22.8854 474.893 22.5156C474.804 22.1406 474.666 21.8125 474.479 21.5312C474.296 21.2448 474.062 21.0208 473.775 20.8594C473.489 20.6927 473.148 20.6094 472.752 20.6094C472.387 20.6094 472.07 20.6719 471.799 20.7969C471.533 20.9219 471.307 21.0911 471.119 21.3047C470.932 21.513 470.778 21.7526 470.658 22.0234C470.544 22.2891 470.458 22.5651 470.4 22.8516V24.875C470.505 25.2396 470.65 25.5833 470.838 25.9062C471.025 26.224 471.275 26.4818 471.588 26.6797C471.9 26.8724 472.294 26.9688 472.768 26.9688C473.158 26.9688 473.494 26.888 473.775 26.7266C474.062 26.5599 474.296 26.3333 474.479 26.0469C474.666 25.7604 474.804 25.4323 474.893 25.0625C474.981 24.6875 475.025 24.2891 475.025 23.8672ZM479.918 16V28H478.472V16H479.918ZM479.574 23.4531L478.972 23.4297C478.978 22.8516 479.063 22.3177 479.23 21.8281C479.397 21.3333 479.631 20.9036 479.933 20.5391C480.235 20.1745 480.595 19.8932 481.011 19.6953C481.433 19.4922 481.899 19.3906 482.41 19.3906C482.826 19.3906 483.201 19.4479 483.535 19.5625C483.868 19.6719 484.152 19.849 484.386 20.0938C484.626 20.3385 484.808 20.6562 484.933 21.0469C485.058 21.4323 485.121 21.9036 485.121 22.4609V28H483.668V22.4453C483.668 22.0026 483.603 21.6484 483.472 21.3828C483.342 21.112 483.152 20.9167 482.902 20.7969C482.652 20.6719 482.345 20.6094 481.98 20.6094C481.621 20.6094 481.293 20.6849 480.996 20.8359C480.704 20.987 480.451 21.1953 480.238 21.4609C480.03 21.7266 479.866 22.0312 479.746 22.375C479.631 22.7135 479.574 23.0729 479.574 23.4531ZM492.357 25.7578C492.357 25.5495 492.31 25.3568 492.216 25.1797C492.128 24.9974 491.943 24.8333 491.661 24.6875C491.385 24.5365 490.969 24.4062 490.411 24.2969C489.943 24.1979 489.518 24.0807 489.138 23.9453C488.763 23.8099 488.443 23.6458 488.177 23.4531C487.917 23.2604 487.716 23.0339 487.575 22.7734C487.435 22.513 487.365 22.2083 487.365 21.8594C487.365 21.526 487.437 21.2109 487.583 20.9141C487.734 20.6172 487.945 20.3542 488.216 20.125C488.492 19.8958 488.823 19.7161 489.208 19.5859C489.594 19.4557 490.023 19.3906 490.497 19.3906C491.174 19.3906 491.753 19.5104 492.232 19.75C492.711 19.9896 493.078 20.3099 493.333 20.7109C493.588 21.1068 493.716 21.5469 493.716 22.0312H492.271C492.271 21.7969 492.2 21.5703 492.06 21.3516C491.924 21.1276 491.724 20.9427 491.458 20.7969C491.198 20.651 490.878 20.5781 490.497 20.5781C490.096 20.5781 489.771 20.6406 489.521 20.7656C489.276 20.8854 489.096 21.0391 488.982 21.2266C488.872 21.4141 488.818 21.612 488.818 21.8203C488.818 21.9766 488.844 22.1172 488.896 22.2422C488.953 22.362 489.052 22.474 489.193 22.5781C489.333 22.6771 489.531 22.7708 489.786 22.8594C490.042 22.9479 490.367 23.0365 490.763 23.125C491.456 23.2812 492.026 23.4688 492.474 23.6875C492.922 23.9062 493.255 24.1745 493.474 24.4922C493.693 24.8099 493.802 25.1953 493.802 25.6484C493.802 26.0182 493.724 26.3568 493.568 26.6641C493.417 26.9714 493.195 27.237 492.904 27.4609C492.617 27.6797 492.273 27.8516 491.872 27.9766C491.476 28.0964 491.031 28.1562 490.536 28.1562C489.792 28.1562 489.161 28.0234 488.646 27.7578C488.13 27.4922 487.74 27.1484 487.474 26.7266C487.208 26.3047 487.075 25.8594 487.075 25.3906H488.529C488.549 25.7865 488.664 26.1016 488.872 26.3359C489.081 26.5651 489.336 26.7292 489.638 26.8281C489.94 26.9219 490.24 26.9688 490.536 26.9688C490.932 26.9688 491.263 26.9167 491.529 26.8125C491.799 26.7083 492.005 26.5651 492.146 26.3828C492.286 26.2005 492.357 25.9922 492.357 25.7578Z" fill="#009688"/>
<path d="M1181.59 19.2949L1177 23.8749L1172.41 19.2949L1171 20.7049L1177 26.7049L1183 20.7049L1181.59 19.2949Z" fill="black" fill-opacity="0.56"/>
</g>
<defs>
<filter id="filter0_dd_245_6048" x="0" y="0" width="1217" height="48" filterUnits="userSpaceOnUse" color-interpolation-filters="sRGB">
<feFlood flood-opacity="0" result="BackgroundImageFix"/>
<feColorMatrix in="SourceAlpha" type="matrix" values="0 0 0 0 0 0 0 0 0 0 0 0 0 0 0 0 0 0 127 0" result="hardAlpha"/>
<feMorphology radius="1" operator="dilate" in="SourceAlpha" result="effect1_dropShadow_245_6048"/>
<feOffset dy="1"/>
<feGaussianBlur stdDeviation="1.5"/>
<feColorMatrix type="matrix" values="0 0 0 0 0 0 0 0 0 0 0 0 0 0 0 0 0 0 0.15 0"/>
<feBlend mode="normal" in2="BackgroundImageFix" result="effect1_dropShadow_245_6048"/>
<feColorMatrix in="SourceAlpha" type="matrix" values="0 0 0 0 0 0 0 0 0 0 0 0 0 0 0 0 0 0 127 0" result="hardAlpha"/>
<feOffset dy="1"/>
<feGaussianBlur stdDeviation="1"/>
<feColorMatrix type="matrix" values="0 0 0 0 0 0 0 0 0 0 0 0 0 0 0 0 0 0 0.3 0"/>
<feBlend mode="normal" in2="effect1_dropShadow_245_6048" result="effect2_dropShadow_245_6048"/>
<feBlend mode="normal" in="SourceGraphic" in2="effect2_dropShadow_245_6048" result="shape"/>
</filter>
</defs>
</svg>
