<svg width="224" height="60" viewBox="0 0 224 60" fill="none" xmlns="http://www.w3.org/2000/svg">
<path d="M0.5 8C0.5 6.067 2.067 4.5 4 4.5H220C221.933 4.5 223.5 6.067 223.5 8V46C223.5 47.933 221.933 49.5 220 49.5H4C2.067 49.5 0.5 47.933 0.5 46V8Z" stroke="black" stroke-opacity="0.23"/>
<path d="M20.0859 30.4062V32.1406C20.0859 33.0729 20.0026 33.8594 19.8359 34.5C19.6693 35.1406 19.4297 35.6562 19.1172 36.0469C18.8047 36.4375 18.4271 36.7214 17.9844 36.8984C17.5469 37.0703 17.0521 37.1562 16.5 37.1562C16.0625 37.1562 15.6589 37.1016 15.2891 36.9922C14.9193 36.8828 14.5859 36.7083 14.2891 36.4688C13.9974 36.224 13.7474 35.9062 13.5391 35.5156C13.3307 35.125 13.1719 34.651 13.0625 34.0938C12.9531 33.5365 12.8984 32.8854 12.8984 32.1406V30.4062C12.8984 29.474 12.9818 28.6927 13.1484 28.0625C13.3203 27.4323 13.5625 26.9271 13.875 26.5469C14.1875 26.1615 14.5625 25.8854 15 25.7188C15.4427 25.5521 15.9375 25.4688 16.4844 25.4688C16.9271 25.4688 17.3333 25.5234 17.7031 25.6328C18.0781 25.737 18.4115 25.9062 18.7031 26.1406C18.9948 26.3698 19.2422 26.6771 19.4453 27.0625C19.6536 27.4427 19.8125 27.9089 19.9219 28.4609C20.0312 29.013 20.0859 29.6615 20.0859 30.4062ZM18.6328 32.375V30.1641C18.6328 29.6536 18.6016 29.2057 18.5391 28.8203C18.4818 28.4297 18.3958 28.0964 18.2812 27.8203C18.1667 27.5443 18.0208 27.3203 17.8438 27.1484C17.6719 26.9766 17.4714 26.8516 17.2422 26.7734C17.0182 26.6901 16.7656 26.6484 16.4844 26.6484C16.1406 26.6484 15.8359 26.7135 15.5703 26.8438C15.3047 26.9688 15.0807 27.1693 14.8984 27.4453C14.7214 27.7214 14.5859 28.0833 14.4922 28.5312C14.3984 28.9792 14.3516 29.5234 14.3516 30.1641V32.375C14.3516 32.8854 14.3802 33.3359 14.4375 33.7266C14.5 34.1172 14.5911 34.4557 14.7109 34.7422C14.8307 35.0234 14.9766 35.2552 15.1484 35.4375C15.3203 35.6198 15.5182 35.7552 15.7422 35.8438C15.9714 35.9271 16.224 35.9688 16.5 35.9688C16.8542 35.9688 17.1641 35.901 17.4297 35.7656C17.6953 35.6302 17.9167 35.4193 18.0938 35.1328C18.276 34.8411 18.4115 34.4688 18.5 34.0156C18.5885 33.5573 18.6328 33.0104 18.6328 32.375ZM29.7828 33.1719V34.3594H21.5641V33.5078L26.6578 25.625H27.8375L26.5719 27.9062L23.2047 33.1719H29.7828ZM28.1969 25.625V37H26.7516V25.625H28.1969ZM36.4328 25.625L31.6906 37.9766H30.4484L35.1984 25.625H36.4328ZM42.7547 25.5625V37H41.3094V27.3672L38.3953 28.4297V27.125L42.5281 25.5625H42.7547ZM54.5062 25.625V26.4375L49.7953 37H48.2719L52.975 26.8125H46.8187V25.625H54.5062ZM61.4922 25.625L56.75 37.9766H55.5078L60.2578 25.625H61.4922ZM70.5172 35.8125V37H63.0719V35.9609L66.7984 31.8125C67.2568 31.3021 67.6109 30.8698 67.8609 30.5156C68.1161 30.1562 68.2932 29.8359 68.3922 29.5547C68.4964 29.2682 68.5484 28.9766 68.5484 28.6797C68.5484 28.3047 68.4703 27.9661 68.3141 27.6641C68.163 27.3568 67.9391 27.112 67.6422 26.9297C67.3453 26.7474 66.9859 26.6562 66.5641 26.6562C66.0589 26.6562 65.637 26.7552 65.2984 26.9531C64.9651 27.1458 64.7151 27.4167 64.5484 27.7656C64.3818 28.1146 64.2984 28.5156 64.2984 28.9688H62.8531C62.8531 28.3281 62.9938 27.7422 63.275 27.2109C63.5563 26.6797 63.9729 26.2578 64.525 25.9453C65.0771 25.6276 65.7568 25.4688 66.5641 25.4688C67.2828 25.4688 67.8974 25.5964 68.4078 25.8516C68.9182 26.1016 69.3089 26.4557 69.5797 26.9141C69.8557 27.3672 69.9938 27.8984 69.9938 28.5078C69.9938 28.8411 69.9365 29.1797 69.8219 29.5234C69.7125 29.862 69.5589 30.2005 69.3609 30.5391C69.1682 30.8776 68.9417 31.2109 68.6813 31.5391C68.426 31.8672 68.1526 32.1901 67.8609 32.5078L64.8141 35.8125H70.5172ZM79.3547 30.4062V32.1406C79.3547 33.0729 79.2714 33.8594 79.1047 34.5C78.938 35.1406 78.6984 35.6562 78.3859 36.0469C78.0734 36.4375 77.6958 36.7214 77.2531 36.8984C76.8156 37.0703 76.3208 37.1562 75.7687 37.1562C75.3312 37.1562 74.9276 37.1016 74.5578 36.9922C74.188 36.8828 73.8547 36.7083 73.5578 36.4688C73.2661 36.224 73.0161 35.9062 72.8078 35.5156C72.5995 35.125 72.4406 34.651 72.3312 34.0938C72.2219 33.5365 72.1672 32.8854 72.1672 32.1406V30.4062C72.1672 29.474 72.2505 28.6927 72.4172 28.0625C72.5891 27.4323 72.8312 26.9271 73.1437 26.5469C73.4562 26.1615 73.8312 25.8854 74.2687 25.7188C74.7115 25.5521 75.2062 25.4688 75.7531 25.4688C76.1958 25.4688 76.6021 25.5234 76.9719 25.6328C77.3469 25.737 77.6802 25.9062 77.9719 26.1406C78.2635 26.3698 78.5109 26.6771 78.7141 27.0625C78.9224 27.4427 79.0812 27.9089 79.1906 28.4609C79.3 29.013 79.3547 29.6615 79.3547 30.4062ZM77.9016 32.375V30.1641C77.9016 29.6536 77.8703 29.2057 77.8078 28.8203C77.7505 28.4297 77.6646 28.0964 77.55 27.8203C77.4354 27.5443 77.2896 27.3203 77.1125 27.1484C76.9406 26.9766 76.7401 26.8516 76.5109 26.7734C76.287 26.6901 76.0344 26.6484 75.7531 26.6484C75.4094 26.6484 75.1047 26.7135 74.8391 26.8438C74.5734 26.9688 74.3495 27.1693 74.1672 27.4453C73.9901 27.7214 73.8547 28.0833 73.7609 28.5312C73.6672 28.9792 73.6203 29.5234 73.6203 30.1641V32.375C73.6203 32.8854 73.649 33.3359 73.7062 33.7266C73.7687 34.1172 73.8599 34.4557 73.9797 34.7422C74.0995 35.0234 74.2453 35.2552 74.4172 35.4375C74.5891 35.6198 74.787 35.7552 75.0109 35.8438C75.2401 35.9271 75.4927 35.9688 75.7687 35.9688C76.1229 35.9688 76.4328 35.901 76.6984 35.7656C76.9641 35.6302 77.1854 35.4193 77.3625 35.1328C77.5448 34.8411 77.6802 34.4688 77.7687 34.0156C77.8573 33.5573 77.9016 33.0104 77.9016 32.375ZM88.8172 35.8125V37H81.3719V35.9609L85.0984 31.8125C85.5568 31.3021 85.9109 30.8698 86.1609 30.5156C86.4161 30.1562 86.5932 29.8359 86.6922 29.5547C86.7964 29.2682 86.8484 28.9766 86.8484 28.6797C86.8484 28.3047 86.7703 27.9661 86.6141 27.6641C86.463 27.3568 86.2391 27.112 85.9422 26.9297C85.6453 26.7474 85.2859 26.6562 84.8641 26.6562C84.3589 26.6562 83.937 26.7552 83.5984 26.9531C83.2651 27.1458 83.0151 27.4167 82.8484 27.7656C82.6818 28.1146 82.5984 28.5156 82.5984 28.9688H81.1531C81.1531 28.3281 81.2937 27.7422 81.575 27.2109C81.8562 26.6797 82.2729 26.2578 82.825 25.9453C83.3771 25.6276 84.0568 25.4688 84.8641 25.4688C85.5828 25.4688 86.1974 25.5964 86.7078 25.8516C87.2182 26.1016 87.6089 26.4557 87.8797 26.9141C88.1557 27.3672 88.2937 27.8984 88.2937 28.5078C88.2937 28.8411 88.2365 29.1797 88.1219 29.5234C88.0125 29.862 87.8589 30.2005 87.6609 30.5391C87.4682 30.8776 87.2417 31.2109 86.9812 31.5391C86.726 31.8672 86.4526 32.1901 86.1609 32.5078L83.1141 35.8125H88.8172ZM97.9672 35.8125V37H90.5219V35.9609L94.2484 31.8125C94.7068 31.3021 95.0609 30.8698 95.3109 30.5156C95.5661 30.1562 95.7432 29.8359 95.8422 29.5547C95.9464 29.2682 95.9984 28.9766 95.9984 28.6797C95.9984 28.3047 95.9203 27.9661 95.7641 27.6641C95.613 27.3568 95.3891 27.112 95.0922 26.9297C94.7953 26.7474 94.4359 26.6562 94.0141 26.6562C93.5089 26.6562 93.087 26.7552 92.7484 26.9531C92.4151 27.1458 92.1651 27.4167 91.9984 27.7656C91.8318 28.1146 91.7484 28.5156 91.7484 28.9688H90.3031C90.3031 28.3281 90.4437 27.7422 90.725 27.2109C91.0062 26.6797 91.4229 26.2578 91.975 25.9453C92.5271 25.6276 93.2068 25.4688 94.0141 25.4688C94.7328 25.4688 95.3474 25.5964 95.8578 25.8516C96.3682 26.1016 96.7589 26.4557 97.0297 26.9141C97.3057 27.3672 97.4437 27.8984 97.4437 28.5078C97.4437 28.8411 97.3865 29.1797 97.2719 29.5234C97.1625 29.862 97.0089 30.2005 96.8109 30.5391C96.6182 30.8776 96.3917 31.2109 96.1312 31.5391C95.876 31.8672 95.6026 32.1901 95.3109 32.5078L92.2641 35.8125H97.9672ZM108.533 25.5625V37H107.088V27.3672L104.173 28.4297V27.125L108.306 25.5625H108.533ZM120.386 35.8125V37H112.941V35.9609L116.667 31.8125C117.126 31.3021 117.48 30.8698 117.73 30.5156C117.985 30.1562 118.162 29.8359 118.261 29.5547C118.365 29.2682 118.417 28.9766 118.417 28.6797C118.417 28.3047 118.339 27.9661 118.183 27.6641C118.032 27.3568 117.808 27.112 117.511 26.9297C117.214 26.7474 116.855 26.6562 116.433 26.6562C115.928 26.6562 115.506 26.7552 115.167 26.9531C114.834 27.1458 114.584 27.4167 114.417 27.7656C114.251 28.1146 114.167 28.5156 114.167 28.9688H112.722C112.722 28.3281 112.863 27.7422 113.144 27.2109C113.425 26.6797 113.842 26.2578 114.394 25.9453C114.946 25.6276 115.626 25.4688 116.433 25.4688C117.152 25.4688 117.766 25.5964 118.277 25.8516C118.787 26.1016 119.178 26.4557 119.448 26.9141C119.724 27.3672 119.863 27.8984 119.863 28.5078C119.863 28.8411 119.805 29.1797 119.691 29.5234C119.581 29.862 119.428 30.2005 119.23 30.5391C119.037 30.8776 118.81 31.2109 118.55 31.5391C118.295 31.8672 118.021 32.1901 117.73 32.5078L114.683 35.8125H120.386ZM122.177 36.2344C122.177 35.9896 122.252 35.7839 122.403 35.6172C122.559 35.4453 122.783 35.3594 123.075 35.3594C123.367 35.3594 123.588 35.4453 123.739 35.6172C123.895 35.7839 123.973 35.9896 123.973 36.2344C123.973 36.474 123.895 36.6771 123.739 36.8438C123.588 37.0104 123.367 37.0938 123.075 37.0938C122.783 37.0938 122.559 37.0104 122.403 36.8438C122.252 36.6771 122.177 36.474 122.177 36.2344ZM122.184 29.3359C122.184 29.0911 122.26 28.8854 122.411 28.7188C122.567 28.5469 122.791 28.4609 123.083 28.4609C123.374 28.4609 123.596 28.5469 123.747 28.7188C123.903 28.8854 123.981 29.0911 123.981 29.3359C123.981 29.5755 123.903 29.7786 123.747 29.9453C123.596 30.112 123.374 30.1953 123.083 30.1953C122.791 30.1953 122.567 30.112 122.411 29.9453C122.26 29.7786 122.184 29.5755 122.184 29.3359ZM133.248 30.4062V32.1406C133.248 33.0729 133.165 33.8594 132.998 34.5C132.832 35.1406 132.592 35.6562 132.28 36.0469C131.967 36.4375 131.59 36.7214 131.147 36.8984C130.709 37.0703 130.215 37.1562 129.662 37.1562C129.225 37.1562 128.821 37.1016 128.452 36.9922C128.082 36.8828 127.748 36.7083 127.452 36.4688C127.16 36.224 126.91 35.9062 126.702 35.5156C126.493 35.125 126.334 34.651 126.225 34.0938C126.116 33.5365 126.061 32.8854 126.061 32.1406V30.4062C126.061 29.474 126.144 28.6927 126.311 28.0625C126.483 27.4323 126.725 26.9271 127.037 26.5469C127.35 26.1615 127.725 25.8854 128.162 25.7188C128.605 25.5521 129.1 25.4688 129.647 25.4688C130.09 25.4688 130.496 25.5234 130.866 25.6328C131.241 25.737 131.574 25.9062 131.866 26.1406C132.157 26.3698 132.405 26.6771 132.608 27.0625C132.816 27.4427 132.975 27.9089 133.084 28.4609C133.194 29.013 133.248 29.6615 133.248 30.4062ZM131.795 32.375V30.1641C131.795 29.6536 131.764 29.2057 131.702 28.8203C131.644 28.4297 131.558 28.0964 131.444 27.8203C131.329 27.5443 131.183 27.3203 131.006 27.1484C130.834 26.9766 130.634 26.8516 130.405 26.7734C130.181 26.6901 129.928 26.6484 129.647 26.6484C129.303 26.6484 128.998 26.7135 128.733 26.8438C128.467 26.9688 128.243 27.1693 128.061 27.4453C127.884 27.7214 127.748 28.0833 127.655 28.5312C127.561 28.9792 127.514 29.5234 127.514 30.1641V32.375C127.514 32.8854 127.543 33.3359 127.6 33.7266C127.662 34.1172 127.754 34.4557 127.873 34.7422C127.993 35.0234 128.139 35.2552 128.311 35.4375C128.483 35.6198 128.681 35.7552 128.905 35.8438C129.134 35.9271 129.386 35.9688 129.662 35.9688C130.017 35.9688 130.327 35.901 130.592 35.7656C130.858 35.6302 131.079 35.4193 131.256 35.1328C131.439 34.8411 131.574 34.4688 131.662 34.0156C131.751 33.5573 131.795 33.0104 131.795 32.375ZM142.398 30.4062V32.1406C142.398 33.0729 142.315 33.8594 142.148 34.5C141.982 35.1406 141.742 35.6562 141.43 36.0469C141.117 36.4375 140.74 36.7214 140.297 36.8984C139.859 37.0703 139.365 37.1562 138.812 37.1562C138.375 37.1562 137.971 37.1016 137.602 36.9922C137.232 36.8828 136.898 36.7083 136.602 36.4688C136.31 36.224 136.06 35.9062 135.852 35.5156C135.643 35.125 135.484 34.651 135.375 34.0938C135.266 33.5365 135.211 32.8854 135.211 32.1406V30.4062C135.211 29.474 135.294 28.6927 135.461 28.0625C135.633 27.4323 135.875 26.9271 136.188 26.5469C136.5 26.1615 136.875 25.8854 137.312 25.7188C137.755 25.5521 138.25 25.4688 138.797 25.4688C139.24 25.4688 139.646 25.5234 140.016 25.6328C140.391 25.737 140.724 25.9062 141.016 26.1406C141.307 26.3698 141.555 26.6771 141.758 27.0625C141.966 27.4427 142.125 27.9089 142.234 28.4609C142.344 29.013 142.398 29.6615 142.398 30.4062ZM140.945 32.375V30.1641C140.945 29.6536 140.914 29.2057 140.852 28.8203C140.794 28.4297 140.708 28.0964 140.594 27.8203C140.479 27.5443 140.333 27.3203 140.156 27.1484C139.984 26.9766 139.784 26.8516 139.555 26.7734C139.331 26.6901 139.078 26.6484 138.797 26.6484C138.453 26.6484 138.148 26.7135 137.883 26.8438C137.617 26.9688 137.393 27.1693 137.211 27.4453C137.034 27.7214 136.898 28.0833 136.805 28.5312C136.711 28.9792 136.664 29.5234 136.664 30.1641V32.375C136.664 32.8854 136.693 33.3359 136.75 33.7266C136.812 34.1172 136.904 34.4557 137.023 34.7422C137.143 35.0234 137.289 35.2552 137.461 35.4375C137.633 35.6198 137.831 35.7552 138.055 35.8438C138.284 35.9271 138.536 35.9688 138.812 35.9688C139.167 35.9688 139.477 35.901 139.742 35.7656C140.008 35.6302 140.229 35.4193 140.406 35.1328C140.589 34.8411 140.724 34.4688 140.812 34.0156C140.901 33.5573 140.945 33.0104 140.945 32.375ZM153.113 26.6328L149.347 37H147.808L152.144 25.625H153.136L153.113 26.6328ZM156.269 37L152.495 26.6328L152.472 25.625H153.464L157.816 37H156.269ZM156.073 32.7891V34.0234H149.683V32.7891H156.073ZM159.966 25.625H161.427L165.153 34.8984L168.872 25.625H170.341L165.716 37H164.575L159.966 25.625ZM159.489 25.625H160.778L160.989 32.5625V37H159.489V25.625ZM169.52 25.625H170.809V37H169.309V32.5625L169.52 25.625Z" fill="black" fill-opacity="0.87"/>
<path d="M205 32H200V37H205V32ZM204 21V23H196V21H194V23H193C191.89 23 191.01 23.9 191.01 25L191 39C191 40.1 191.89 41 193 41H207C208.1 41 209 40.1 209 39V25C209 23.9 208.1 23 207 23H206V21H204ZM207 39H193V28H207V39Z" fill="black" fill-opacity="0.56"/>
<rect width="35" height="2" transform="translate(12 4)" fill="white"/>
<path d="M21.5371 6.84375C21.5371 6.64453 21.5059 6.46875 21.4434 6.31641C21.3848 6.16016 21.2793 6.01953 21.127 5.89453C20.9785 5.76953 20.7715 5.65039 20.5059 5.53711C20.2441 5.42383 19.9121 5.30859 19.5098 5.19141C19.0879 5.06641 18.707 4.92773 18.3672 4.77539C18.0273 4.61914 17.7363 4.44141 17.4941 4.24219C17.252 4.04297 17.0664 3.81445 16.9375 3.55664C16.8086 3.29883 16.7441 3.00391 16.7441 2.67188C16.7441 2.33984 16.8125 2.0332 16.9492 1.75195C17.0859 1.4707 17.2812 1.22656 17.5352 1.01953C17.793 0.808594 18.0996 0.644531 18.4551 0.527344C18.8105 0.410156 19.207 0.351562 19.6445 0.351562C20.2852 0.351562 20.8281 0.474609 21.2734 0.720703C21.7227 0.962891 22.0645 1.28125 22.2988 1.67578C22.5332 2.06641 22.6504 2.48438 22.6504 2.92969H21.5254C21.5254 2.60937 21.457 2.32617 21.3203 2.08008C21.1836 1.83008 20.9766 1.63477 20.6992 1.49414C20.4219 1.34961 20.0703 1.27734 19.6445 1.27734C19.2422 1.27734 18.9102 1.33789 18.6484 1.45898C18.3867 1.58008 18.1914 1.74414 18.0625 1.95117C17.9375 2.1582 17.875 2.39453 17.875 2.66016C17.875 2.83984 17.9121 3.00391 17.9863 3.15234C18.0645 3.29688 18.1836 3.43164 18.3438 3.55664C18.5078 3.68164 18.7148 3.79688 18.9648 3.90234C19.2188 4.00781 19.5215 4.10938 19.873 4.20703C20.3574 4.34375 20.7754 4.49609 21.127 4.66406C21.4785 4.83203 21.7676 5.02148 21.9941 5.23242C22.2246 5.43945 22.3945 5.67578 22.5039 5.94141C22.6172 6.20312 22.6738 6.5 22.6738 6.83203C22.6738 7.17969 22.6035 7.49414 22.4629 7.77539C22.3223 8.05664 22.1211 8.29688 21.8594 8.49609C21.5977 8.69531 21.2832 8.84961 20.916 8.95898C20.5527 9.06445 20.1465 9.11719 19.6973 9.11719C19.3027 9.11719 18.9141 9.0625 18.5312 8.95312C18.1523 8.84375 17.8066 8.67969 17.4941 8.46094C17.1855 8.24219 16.9375 7.97266 16.75 7.65234C16.5664 7.32812 16.4746 6.95312 16.4746 6.52734H17.5996C17.5996 6.82031 17.6562 7.07227 17.7695 7.2832C17.8828 7.49023 18.0371 7.66211 18.2324 7.79883C18.4316 7.93555 18.6562 8.03711 18.9062 8.10352C19.1602 8.16602 19.4238 8.19727 19.6973 8.19727C20.0918 8.19727 20.4258 8.14258 20.6992 8.0332C20.9727 7.92383 21.1797 7.76758 21.3203 7.56445C21.4648 7.36133 21.5371 7.12109 21.5371 6.84375ZM26.7555 2.66016V3.49219H23.3277V2.66016H26.7555ZM24.4879 1.11914H25.5719V7.42969C25.5719 7.64453 25.6051 7.80664 25.6715 7.91602C25.7379 8.02539 25.8238 8.09766 25.9293 8.13281C26.0348 8.16797 26.148 8.18555 26.2691 8.18555C26.359 8.18555 26.4527 8.17773 26.5504 8.16211C26.652 8.14258 26.7281 8.12695 26.7789 8.11523L26.7848 9C26.6988 9.02734 26.5855 9.05273 26.4449 9.07617C26.3082 9.10352 26.1422 9.11719 25.9469 9.11719C25.6813 9.11719 25.4371 9.06445 25.2145 8.95898C24.9918 8.85352 24.8141 8.67773 24.6813 8.43164C24.5523 8.18164 24.4879 7.8457 24.4879 7.42383V1.11914ZM31.9152 7.91602V4.65234C31.9152 4.40234 31.8645 4.18555 31.7629 4.00195C31.6652 3.81445 31.5168 3.66992 31.3176 3.56836C31.1184 3.4668 30.8723 3.41602 30.5793 3.41602C30.3059 3.41602 30.0656 3.46289 29.8586 3.55664C29.6555 3.65039 29.4953 3.77344 29.3781 3.92578C29.2648 4.07812 29.2082 4.24219 29.2082 4.41797H28.1242C28.1242 4.19141 28.1828 3.9668 28.3 3.74414C28.4172 3.52148 28.5852 3.32031 28.8039 3.14062C29.0266 2.95703 29.2922 2.8125 29.6008 2.70703C29.9133 2.59766 30.2609 2.54297 30.6438 2.54297C31.1047 2.54297 31.5109 2.62109 31.8625 2.77734C32.218 2.93359 32.4953 3.16992 32.6945 3.48633C32.8977 3.79883 32.9992 4.19141 32.9992 4.66406V7.61719C32.9992 7.82812 33.0168 8.05273 33.052 8.29102C33.091 8.5293 33.1477 8.73438 33.2219 8.90625V9H32.091C32.0363 8.875 31.9934 8.70898 31.9621 8.50195C31.9309 8.29102 31.9152 8.0957 31.9152 7.91602ZM32.1027 5.15625L32.1145 5.91797H31.0188C30.7102 5.91797 30.4348 5.94336 30.1926 5.99414C29.9504 6.04102 29.7473 6.11328 29.5832 6.21094C29.4191 6.30859 29.2941 6.43164 29.2082 6.58008C29.1223 6.72461 29.0793 6.89453 29.0793 7.08984C29.0793 7.28906 29.1242 7.4707 29.2141 7.63477C29.3039 7.79883 29.4387 7.92969 29.6184 8.02734C29.802 8.12109 30.0266 8.16797 30.2922 8.16797C30.6242 8.16797 30.9172 8.09766 31.1711 7.95703C31.425 7.81641 31.6262 7.64453 31.7746 7.44141C31.927 7.23828 32.009 7.04102 32.0207 6.84961L32.4836 7.37109C32.4563 7.53516 32.382 7.7168 32.2609 7.91602C32.1398 8.11523 31.9777 8.30664 31.7746 8.49023C31.5754 8.66992 31.3371 8.82031 31.0598 8.94141C30.7863 9.05859 30.4777 9.11719 30.134 9.11719C29.7043 9.11719 29.3273 9.0332 29.0031 8.86523C28.6828 8.69727 28.4328 8.47266 28.2531 8.19141C28.0773 7.90625 27.9895 7.58789 27.9895 7.23633C27.9895 6.89648 28.0559 6.59766 28.1887 6.33984C28.3215 6.07812 28.5129 5.86133 28.7629 5.68945C29.0129 5.51367 29.3137 5.38086 29.6652 5.29102C30.0168 5.20117 30.4094 5.15625 30.843 5.15625H32.1027ZM35.9383 3.65625V9H34.8543V2.66016H35.909L35.9383 3.65625ZM37.9188 2.625L37.9129 3.63281C37.823 3.61328 37.7371 3.60156 37.6551 3.59766C37.577 3.58984 37.4871 3.58594 37.3855 3.58594C37.1355 3.58594 36.9148 3.625 36.7234 3.70312C36.532 3.78125 36.3699 3.89062 36.2371 4.03125C36.1043 4.17188 35.9988 4.33984 35.9207 4.53516C35.8465 4.72656 35.7977 4.9375 35.7742 5.16797L35.4695 5.34375C35.4695 4.96094 35.5066 4.60156 35.5809 4.26562C35.659 3.92969 35.7781 3.63281 35.9383 3.375C36.0984 3.11328 36.3016 2.91016 36.5477 2.76562C36.7977 2.61719 37.0945 2.54297 37.4383 2.54297C37.5164 2.54297 37.6063 2.55273 37.7078 2.57227C37.8094 2.58789 37.8797 2.60547 37.9188 2.625ZM42.018 2.66016V3.49219H38.5902V2.66016H42.018ZM39.7504 1.11914H40.8344V7.42969C40.8344 7.64453 40.8676 7.80664 40.934 7.91602C41.0004 8.02539 41.0863 8.09766 41.1918 8.13281C41.2973 8.16797 41.4105 8.18555 41.5316 8.18555C41.6215 8.18555 41.7152 8.17773 41.8129 8.16211C41.9145 8.14258 41.9906 8.12695 42.0414 8.11523L42.0473 9C41.9613 9.02734 41.848 9.05273 41.7074 9.07617C41.5707 9.10352 41.4047 9.11719 41.2094 9.11719C40.9438 9.11719 40.6996 9.06445 40.477 8.95898C40.2543 8.85352 40.0766 8.67773 39.9438 8.43164C39.8148 8.18164 39.7504 7.8457 39.7504 7.42383V1.11914Z" fill="#009688"/>
</svg>
