<svg width="134" height="33" viewBox="0 0 134 33" fill="none" xmlns="http://www.w3.org/2000/svg">
<path d="M0 8C0 3.58172 3.58172 0 8 0H125.114C129.532 0 133.114 3.58172 133.114 8V24.7665C133.114 29.1847 129.532 32.7665 125.114 32.7665H8C3.58172 32.7665 0 29.1847 0 24.7665V8Z" fill="#009688"/>
<path d="M53.8967 12.312L50.6018 21.3833H49.2551L53.0491 11.4302H53.9172L53.8967 12.312ZM56.6584 21.3833L53.3567 12.312L53.3362 11.4302H54.2043L58.012 21.3833H56.6584ZM56.4875 17.6987V18.7788H50.8958V17.6987H56.4875ZM60.4182 15.4087V24.2271H59.1467V13.9868H60.3088L60.4182 15.4087ZM65.4016 17.6235V17.7671C65.4016 18.3049 65.3378 18.8039 65.2102 19.2642C65.0826 19.7199 64.8958 20.1164 64.6497 20.4536C64.4081 20.7909 64.1096 21.0529 63.7542 21.2397C63.3987 21.4266 62.9908 21.52 62.5305 21.52C62.0611 21.52 61.6464 21.4425 61.2864 21.2876C60.9264 21.1326 60.621 20.9071 60.3704 20.6108C60.1197 20.3146 59.9192 19.9591 59.7688 19.5444C59.623 19.1297 59.5227 18.6626 59.468 18.1431V17.3774C59.5227 16.8306 59.6252 16.3407 59.7756 15.9077C59.926 15.4748 60.1243 15.1056 60.3704 14.8003C60.621 14.4904 60.9241 14.2557 61.2795 14.0962C61.635 13.9321 62.0452 13.8501 62.51 13.8501C62.9749 13.8501 63.3873 13.9412 63.7473 14.1235C64.1073 14.3013 64.4104 14.5565 64.6565 14.8892C64.9026 15.2218 65.0872 15.6206 65.2102 16.0854C65.3378 16.5457 65.4016 17.0584 65.4016 17.6235ZM64.1301 17.7671V17.6235C64.1301 17.2544 64.0914 16.908 64.0139 16.5845C63.9364 16.2563 63.8157 15.9692 63.6516 15.7231C63.4921 15.4725 63.287 15.2765 63.0364 15.1353C62.7857 14.9894 62.4872 14.9165 62.1409 14.9165C61.8219 14.9165 61.5439 14.9712 61.3069 15.0806C61.0745 15.1899 60.8762 15.3381 60.7122 15.5249C60.5481 15.7072 60.4137 15.9168 60.3088 16.1538C60.2086 16.3862 60.1334 16.6278 60.0833 16.8784V18.6489C60.1744 18.9679 60.302 19.2687 60.4661 19.5513C60.6301 19.8293 60.8489 20.0549 61.1223 20.228C61.3958 20.3966 61.7398 20.481 62.1545 20.481C62.4963 20.481 62.7903 20.4103 63.0364 20.269C63.287 20.1232 63.4921 19.925 63.6516 19.6743C63.8157 19.4237 63.9364 19.1366 64.0139 18.813C64.0914 18.4849 64.1301 18.1362 64.1301 17.7671ZM68.2795 15.4087V24.2271H67.0081V13.9868H68.1702L68.2795 15.4087ZM73.2629 17.6235V17.7671C73.2629 18.3049 73.1991 18.8039 73.0715 19.2642C72.9439 19.7199 72.7571 20.1164 72.511 20.4536C72.2694 20.7909 71.9709 21.0529 71.6155 21.2397C71.26 21.4266 70.8521 21.52 70.3918 21.52C69.9224 21.52 69.5077 21.4425 69.1477 21.2876C68.7877 21.1326 68.4823 20.9071 68.2317 20.6108C67.981 20.3146 67.7805 19.9591 67.6301 19.5444C67.4843 19.1297 67.384 18.6626 67.3293 18.1431V17.3774C67.384 16.8306 67.4866 16.3407 67.637 15.9077C67.7874 15.4748 67.9856 15.1056 68.2317 14.8003C68.4823 14.4904 68.7854 14.2557 69.1409 14.0962C69.4963 13.9321 69.9065 13.8501 70.3713 13.8501C70.8362 13.8501 71.2486 13.9412 71.6086 14.1235C71.9687 14.3013 72.2717 14.5565 72.5178 14.8892C72.7639 15.2218 72.9485 15.6206 73.0715 16.0854C73.1991 16.5457 73.2629 17.0584 73.2629 17.6235ZM71.9915 17.7671V17.6235C71.9915 17.2544 71.9527 16.908 71.8752 16.5845C71.7978 16.2563 71.677 15.9692 71.5129 15.7231C71.3534 15.4725 71.1484 15.2765 70.8977 15.1353C70.6471 14.9894 70.3486 14.9165 70.0022 14.9165C69.6832 14.9165 69.4052 14.9712 69.1682 15.0806C68.9358 15.1899 68.7375 15.3381 68.5735 15.5249C68.4094 15.7072 68.275 15.9168 68.1702 16.1538C68.0699 16.3862 67.9947 16.6278 67.9446 16.8784V18.6489C68.0357 18.9679 68.1633 19.2687 68.3274 19.5513C68.4915 19.8293 68.7102 20.0549 68.9836 20.228C69.2571 20.3966 69.6012 20.481 70.0159 20.481C70.3577 20.481 70.6516 20.4103 70.8977 20.269C71.1484 20.1232 71.3534 19.925 71.5129 19.6743C71.677 19.4237 71.7978 19.1366 71.8752 18.813C71.9527 18.4849 71.9915 18.1362 71.9915 17.7671ZM76.2502 10.8833V21.3833H74.9788V10.8833H76.2502ZM80.3586 20.6177L82.4163 13.9868H83.7698L80.803 22.5249C80.7346 22.7072 80.6435 22.9032 80.5295 23.1128C80.4202 23.327 80.2789 23.5298 80.1057 23.7212C79.9325 23.9126 79.7229 24.0675 79.4768 24.186C79.2353 24.3091 78.9459 24.3706 78.6086 24.3706C78.5084 24.3706 78.3808 24.3569 78.2258 24.3296C78.0709 24.3022 77.9615 24.2795 77.8977 24.2612L77.8909 23.2358C77.9273 23.2404 77.9843 23.245 78.0618 23.2495C78.1438 23.2586 78.2008 23.2632 78.2327 23.2632C78.5198 23.2632 78.7636 23.2244 78.9641 23.147C79.1646 23.0741 79.3333 22.9487 79.47 22.771C79.6112 22.5978 79.732 22.3586 79.8323 22.0532L80.3586 20.6177ZM78.8479 13.9868L80.7688 19.729L81.0969 21.062L80.1877 21.5269L77.467 13.9868H78.8479Z" fill="#F5F5F5"/>
</svg>
