<svg width="131" height="42" viewBox="0 0 131 42" fill="none" xmlns="http://www.w3.org/2000/svg">
<path d="M66.947 15.7695V25.4163C66.947 25.965 67.3801 26.4662 67.8531 26.4662H68.0484V14.738H67.8531C67.3868 14.738 66.947 15.2392 66.947 15.7708" fill="#1CBBEA"/>
<path d="M81.8153 14.7381H70.1821C69.7158 14.7381 69.2747 15.2393 69.2747 15.7709V20.1393C69.2747 20.6893 69.7078 21.1905 70.1821 21.1905H81.62V25.2239H69.2747V25.4177C69.2747 25.9664 69.7078 26.4676 70.1821 26.4676H81.8153C82.3414 26.4676 82.7227 26.0258 82.7227 25.4177V20.9966C82.7227 20.5204 82.4198 20.0971 82.0292 19.9797V19.9454H70.3774V15.9634H82.7227V15.7696C82.7227 15.2301 82.2896 14.7368 81.8153 14.7368" fill="#1CBBEA"/>
<path d="M111.499 14.7631V14.738H99.6783C99.212 14.738 98.7722 15.2392 98.7722 15.7708V25.4176C98.7722 25.9677 99.204 26.4675 99.6783 26.4675H99.8736V21.1904H111.118L111.12 25.3873L110.95 26.4675H111.179C111.762 26.4675 112.219 26.0072 112.219 25.419V15.7721C112.219 15.3039 111.895 14.8713 111.499 14.7644M111.118 19.9466H99.8736V15.9633H111.118V19.9466Z" fill="#1CBBEA"/>
<path d="M130.999 15.5518H130.975C130.875 15.1126 130.49 14.738 130.097 14.738H114.429C113.962 14.738 113.522 15.2392 113.522 15.7708V25.4176C113.522 25.9677 113.954 26.4675 114.429 26.4675H114.623V15.9647H121.651V26.4675H121.845C122.257 26.4675 122.623 26.1048 122.715 25.6392H122.738V15.9633H129.9V26.4662H130.094C130.503 26.4662 130.874 26.1088 130.972 25.6511H131V15.7444L130.996 15.5505L130.999 15.5518Z" fill="#1CBBEA"/>
<path d="M64.7521 14.7383H64.5568V25.2398H57.5299V14.7383H57.3346C56.924 14.7383 56.5573 15.1023 56.467 15.5666H56.4417V25.2398H49.2793V14.7383H49.0853C48.6827 14.7383 48.3054 15.1023 48.2071 15.5534H48.1792V25.4614L48.1832 25.6553H48.2084C48.3094 26.0932 48.6947 26.4678 49.0866 26.4678H64.7548C65.2211 26.4678 65.6609 25.9666 65.6609 25.435V15.7882C65.6609 15.2395 65.2291 14.7383 64.7548 14.7383" fill="#1CBBEA"/>
<path d="M96.5708 14.738H84.931C84.466 14.738 84.0249 15.2392 84.0249 15.7708V25.4176C84.0249 25.9663 84.4567 26.4675 84.931 26.4675H85.1263V15.9647H96.3702L96.3729 25.3886L96.2041 26.4675H96.4313C97.0239 26.4675 97.4716 26.0165 97.4716 25.419V15.7721C97.4716 15.2406 97.0451 14.7473 96.5722 14.7394" fill="#1CBBEA"/>
<path d="M22.1441 0.0910096C22.8934 0.188612 22.7632 0.262474 22.7592 0.299405C22.7539 0.350844 22.7194 0.436577 22.7194 0.436577C22.7194 0.436577 21.7163 0.38118 21.4054 0.506481C17.2522 2.18815 13.0472 33.6044 18.5848 40.343C18.6167 40.3812 18.5648 40.5421 18.5648 40.5421C18.3323 40.5224 14.6402 40.4524 10.3541 38.1153C-4.88223 29.8085 -3.2826 6.88101 15.0175 0.867876C16.9307 0.238733 18.1849 -0.197842 22.1454 0.0910096" fill="#97BF0D"/>
<path d="M33.0081 2.15259C35.1537 3.99385 27.6578 10.0835 25.7446 27.1877C24.4014 39.1982 21.2115 39.8115 20.9165 41.1304C20.9165 41.1304 24.8943 41.323 24.998 41.2215C29.85 36.555 28.9758 27.1561 32.0541 18.7992C34.8335 11.2547 37.9079 7.37302 37.8016 5.23499C37.8016 4.97384 37.4668 4.30777 37.0842 4.05584C36.2086 3.47682 33.0067 2.15391 33.0067 2.15391" fill="#007CB0"/>
<path d="M24.6459 0.0262213C26.9271 2.07324 18.9184 12.7199 17.7758 23.5314C17.704 24.179 17.704 25.862 17.5247 27.1875C17.5247 27.1875 22.2412 24.2898 22.2558 24.1447C23.4303 13.0483 29.0502 5.80853 29.0502 1.75406C29.0502 1.49422 28.9214 1.31616 28.7633 1.22647C27.8492 0.706804 24.6459 0.0249023 24.6459 0.0249023" fill="#007CB0"/>
<path d="M35.5615 20.0507C34.9503 22.2336 35.1682 21.5187 34.7271 23.5433C34.3684 25.1986 33.5566 31.1273 32.3037 34.2599C32.2984 34.2717 32.9415 37.9081 33.8064 38.2814L33.926 38.313C34.0043 38.284 34.0229 38.3499 34.8626 37.184C36.3453 35.1264 37.9091 27.9684 38.7421 23.0817C39.1181 20.8764 39.8276 17.1226 42.6336 11.9048C41.3741 11.8231 38.0978 10.9684 35.5601 20.0507" fill="#007CB0"/>
<path d="M22.7287 17.3707C22.7991 16.7086 23.7411 6.34418 26.6295 2.3451C26.6428 2.32795 26.9696 1.91248 27.1184 1.77662C27.1636 1.7331 27.3695 1.55108 27.6273 1.44029C27.8956 1.32422 28.9612 0.958871 29.0489 1.75684C29.0489 1.75684 29.1419 1.36643 28.6702 1.18046C27.1224 0.56714 24.6565 0.0263672 24.6459 0.0263672C24.6193 0.0263672 24.4506 0.0501084 24.3908 0.0593411C24.3044 0.0751686 24.0879 0.094953 23.676 0.416779C23.6122 0.468218 23.0542 0.927216 22.5972 1.79905C21.246 4.37233 20.4515 7.88604 20.3957 8.09443C18.7057 14.3634 16.8351 36.4824 20.8488 41.0934C20.9179 41.2583 24.5768 41.5459 24.9993 41.2227C22.7712 41.6224 21.5596 28.4169 22.7287 17.3707Z" fill="#1CBBEA"/>
<path d="M32.2799 16.8905C32.3623 16.2654 33.093 9.14035 35.3211 5.31009C35.3304 5.29295 35.3902 5.10566 35.9123 4.53718C35.9522 4.49366 36.1435 4.31296 36.3893 4.21668C37.1253 3.92914 37.6727 4.54905 37.8016 5.23491C37.8016 5.23491 37.7564 4.67963 37.2941 4.22987C36.5301 3.48861 34.0895 2.60755 33.097 2.19999C33.0744 2.18944 32.9004 2.11426 32.5257 2.11426C32.3012 2.11426 31.9624 2.38596 31.8349 2.48752C31.7737 2.53501 31.411 2.88057 30.9806 3.70756C29.7104 6.14763 29.0355 8.88051 28.9824 9.07704C27.3881 15.0203 25.5599 35.7055 29.6427 40.2071C31.4868 39.8088 33.2737 38.842 34.0111 38.2695C34.0111 38.2695 33.9128 38.3434 33.8038 38.2801C32.442 37.498 30.7109 28.93 32.2773 16.8892" fill="#1CBBEA"/>
</svg>
