<svg width="42" height="42" viewBox="0 0 42 42" fill="none" xmlns="http://www.w3.org/2000/svg">
<path d="M22.1441 0.0910096C22.8934 0.188612 22.7632 0.262474 22.7592 0.299405C22.7539 0.350844 22.7194 0.436577 22.7194 0.436577C22.7194 0.436577 21.7163 0.38118 21.4054 0.506481C17.2522 2.18815 13.0472 33.6044 18.5848 40.343C18.6167 40.3812 18.5648 40.5421 18.5648 40.5421C18.3323 40.5224 14.6402 40.4524 10.3541 38.1153C-4.88223 29.8085 -3.2826 6.88101 15.0175 0.867876C16.9307 0.238733 18.1849 -0.197842 22.1454 0.0910096" fill="#97BF0D"/>
<path d="M33.0081 2.15259C35.1537 3.99385 27.6578 10.0835 25.7446 27.1877C24.4014 39.1982 21.2115 39.8115 20.9165 41.1304C20.9165 41.1304 24.8943 41.323 24.998 41.2215C29.85 36.555 28.9758 27.1561 32.0541 18.7992C34.8335 11.2547 37.9079 7.37302 37.8016 5.23499C37.8016 4.97384 37.4668 4.30777 37.0842 4.05584C36.2086 3.47682 33.0067 2.15391 33.0067 2.15391" fill="#007CB0"/>
<path d="M24.6459 0.0262213C26.9271 2.07324 18.9184 12.7199 17.7758 23.5314C17.704 24.179 17.704 25.862 17.5247 27.1875C17.5247 27.1875 22.2412 24.2898 22.2558 24.1447C23.4303 13.0483 29.0502 5.80853 29.0502 1.75406C29.0502 1.49422 28.9214 1.31616 28.7633 1.22647C27.8492 0.706804 24.6459 0.0249023 24.6459 0.0249023" fill="#007CB0"/>
<path d="M35.5615 20.0507C34.9503 22.2336 35.1682 21.5187 34.7271 23.5433C34.3684 25.1986 33.5566 31.1273 32.3037 34.2599C32.2984 34.2717 32.9415 37.9081 33.8064 38.2814L33.926 38.313C34.0043 38.284 34.0229 38.3499 34.8626 37.184C36.3453 35.1264 37.9091 27.9684 38.7421 23.0817C39.1181 20.8764 39.8276 17.1226 42.6336 11.9048C41.3741 11.8231 38.0978 10.9684 35.5601 20.0507" fill="#007CB0"/>
<path d="M22.7287 17.3707C22.7991 16.7086 23.7411 6.34418 26.6295 2.3451C26.6428 2.32795 26.9696 1.91248 27.1184 1.77662C27.1636 1.7331 27.3695 1.55108 27.6273 1.44029C27.8956 1.32422 28.9612 0.958871 29.0489 1.75684C29.0489 1.75684 29.1419 1.36643 28.6702 1.18046C27.1224 0.56714 24.6565 0.0263672 24.6459 0.0263672C24.6193 0.0263672 24.4506 0.0501084 24.3908 0.0593411C24.3044 0.0751686 24.0879 0.094953 23.676 0.416779C23.6122 0.468218 23.0542 0.927216 22.5972 1.79905C21.246 4.37233 20.4515 7.88604 20.3957 8.09443C18.7057 14.3634 16.8351 36.4824 20.8488 41.0934C20.9179 41.2583 24.5768 41.5459 24.9993 41.2227C22.7712 41.6224 21.5596 28.4169 22.7287 17.3707Z" fill="#1CBBEA"/>
<path d="M32.2799 16.8905C32.3623 16.2654 33.093 9.14035 35.3211 5.31009C35.3304 5.29295 35.3902 5.10566 35.9123 4.53718C35.9522 4.49366 36.1435 4.31296 36.3893 4.21668C37.1253 3.92914 37.6727 4.54905 37.8016 5.23491C37.8016 5.23491 37.7564 4.67963 37.2941 4.22987C36.5301 3.48861 34.0895 2.60755 33.097 2.19999C33.0744 2.18944 32.9004 2.11426 32.5257 2.11426C32.3012 2.11426 31.9624 2.38596 31.8349 2.48752C31.7737 2.53501 31.411 2.88057 30.9806 3.70756C29.7104 6.14763 29.0355 8.88051 28.9824 9.07704C27.3881 15.0203 25.5599 35.7055 29.6427 40.2071C31.4868 39.8088 33.2737 38.842 34.0111 38.2695C34.0111 38.2695 33.9128 38.3434 33.8038 38.2801C32.442 37.498 30.7109 28.93 32.2773 16.8892" fill="#1CBBEA"/>
</svg>
